<svg width="103" height="103" viewBox="0 0 103 103" fill="none" xmlns="http://www.w3.org/2000/svg">
<path fill-rule="evenodd" clip-rule="evenodd" d="M94.9884 79.0986C100.061 71.1214 103 61.6539 103 51.5C103 23.0573 79.9427 0 51.5 0C23.0573 0 0 23.0573 0 51.5C0 79.9427 23.0573 103 51.5 103C63.0588 103 73.7282 99.192 82.3222 92.7621L100.584 96.7949L94.9884 79.0986Z" fill="white"/>
<path fill-rule="evenodd" clip-rule="evenodd" d="M92.8003 78.8123L93.3008 78.0254C98.1759 70.3594 101 61.2626 101 51.5C101 24.1619 78.8381 2 51.5 2C24.1619 2 2 24.1619 2 51.5C2 78.8381 24.1619 101 51.5 101C62.6122 101 72.8641 97.3408 81.124 91.1607L81.8581 90.6115L97.6327 94.0949L92.8003 78.8123ZM100.584 96.7949L82.3222 92.7621C73.7282 99.192 63.0588 103 51.5 103C23.0573 103 0 79.9427 0 51.5C0 23.0573 23.0573 0 51.5 0C79.9427 0 103 23.0573 103 51.5C103 61.6539 100.061 71.1214 94.9884 79.0986L100.584 96.7949Z" fill="url(#paint0_linear_5024_400)"/>
<path d="M68.2227 60.8516C68.5604 60.8657 68.8911 60.8798 69.2148 60.8939C69.5385 60.9079 69.8762 60.915 70.228 60.915C70.4251 60.915 70.7135 60.9079 71.0935 60.8939C71.4735 60.8798 71.9097 60.8657 72.4023 60.8516C72.9089 60.8235 73.4155 60.7953 73.9221 60.7672C74.4428 60.7391 74.9142 60.7109 75.3364 60.6828C75.7727 60.6546 76.1245 60.6265 76.3919 60.5983C76.7437 60.5561 77.0392 60.5139 77.2784 60.4717C77.5177 60.4295 77.7077 60.3802 77.8484 60.3239L79.516 62.2659C79.2908 62.4067 79.0094 62.5966 78.6716 62.8359C78.348 63.061 78.0735 63.2581 77.8484 63.4269C77.5529 63.6662 77.2362 63.9265 76.8985 64.208C76.5607 64.4894 76.2089 64.7779 75.843 65.0734C75.4912 65.3549 75.1394 65.6434 74.7876 65.9389C74.4358 66.2204 74.091 66.5018 73.7532 66.7833C73.4296 67.0506 73.12 67.2899 72.8244 67.501C73.7673 67.4025 74.7594 67.318 75.8008 67.2477C76.8563 67.1632 77.8906 67.0999 78.9038 67.0577C79.9311 67.0155 80.874 66.9943 81.7324 66.9943V69.4852C80.7333 69.4289 79.7411 69.4008 78.7561 69.4008C77.771 69.4008 76.9548 69.45 76.3074 69.5485C75.8149 69.6048 75.3575 69.7315 74.9353 69.9285C74.5132 70.1255 74.1332 70.3788 73.7955 70.6884C73.4718 70.9839 73.2185 71.3217 73.0355 71.7016C72.8526 72.0675 72.7611 72.4686 72.7611 72.9049C72.7611 73.4537 72.8948 73.904 73.1622 74.2558C73.4296 74.6076 73.8025 74.875 74.281 75.058C74.7735 75.2409 75.3294 75.3676 75.9486 75.4379C76.5537 75.5083 77.1447 75.5435 77.7217 75.5435C78.2987 75.5435 78.7842 75.5294 79.1782 75.5013L78.6083 78.2665C75.9064 78.3791 73.8025 78.0273 72.2967 77.2111C70.805 76.3949 70.0592 75.1072 70.0592 73.3481C70.0592 72.9119 70.1295 72.4897 70.2703 72.0816C70.4251 71.6594 70.615 71.2724 70.8402 70.9206C71.0794 70.5688 71.3327 70.2662 71.6001 70.0129C70.6291 70.0833 69.5807 70.1959 68.4549 70.3507C67.3431 70.5055 66.2525 70.6743 65.183 70.8573L64.9297 68.3031C65.4926 68.2468 66.1118 68.1764 66.7873 68.092C67.4628 68.0076 68.082 67.9372 68.6449 67.8809C69.1093 67.5713 69.6159 67.2054 70.1647 66.7833C70.7135 66.3611 71.2624 65.9248 71.8112 65.4745C72.36 65.0101 72.8737 64.5739 73.3522 64.1657C73.8447 63.7436 74.2528 63.3847 74.5765 63.0892C74.4076 63.1033 74.1754 63.1173 73.8799 63.1314C73.5984 63.1455 73.2818 63.1666 72.93 63.1947C72.5922 63.2088 72.2475 63.2299 71.8956 63.2581C71.5438 63.2721 71.2202 63.2932 70.9246 63.3214C70.6432 63.3355 70.418 63.3495 70.2491 63.3636C69.9818 63.3777 69.6792 63.4058 69.3415 63.448C69.0178 63.4762 68.6871 63.5114 68.3493 63.5536L68.2227 60.8516Z" fill="url(#paint1_linear_5024_400)"/>
<path d="M53.9743 60.0706C53.9461 60.2676 53.918 60.5139 53.8898 60.8094C53.8617 61.0909 53.8406 61.3864 53.8265 61.696C53.8124 61.9915 53.7983 62.273 53.7843 62.5404C53.7702 63.047 53.7632 63.5958 53.7632 64.1869C53.7772 64.7779 53.7843 65.376 53.7843 65.9811C53.7843 66.5722 53.7983 67.2688 53.8265 68.0709C53.8687 68.859 53.918 69.6752 53.9743 70.5196C54.0305 71.3639 54.0728 72.152 54.1009 72.8838C54.1431 73.6015 54.1642 74.1855 54.1642 74.6358C54.1642 75.1002 54.0939 75.5505 53.9531 75.9868C53.8124 76.423 53.5732 76.81 53.2354 77.1478C52.8977 77.4996 52.4403 77.774 51.8633 77.971C51.2864 78.1821 50.5546 78.2877 49.668 78.2877C48.6689 78.2877 47.7471 78.161 46.9027 77.9077C46.0725 77.6685 45.411 77.2674 44.9185 76.7045C44.426 76.1416 44.1797 75.3817 44.1797 74.4247C44.1797 73.6929 44.3908 73.0315 44.813 72.4405C45.2351 71.8353 45.8684 71.3569 46.7128 71.0051C47.5712 70.6532 48.6478 70.4773 49.9424 70.4773C51.0401 70.4773 52.1026 70.604 53.1299 70.8573C54.1713 71.1106 55.1423 71.4413 56.0429 71.8494C56.9576 72.2435 57.7809 72.6938 58.5127 73.2004C59.2585 73.6929 59.8988 74.1925 60.4336 74.6991L58.8082 77.2111C58.2875 76.6904 57.6894 76.1697 57.0139 75.649C56.3525 75.1283 55.6278 74.6569 54.8397 74.2347C54.0516 73.8126 53.2073 73.4748 52.3066 73.2215C51.4201 72.9541 50.4983 72.8204 49.5414 72.8204C48.7252 72.8204 48.0778 72.9541 47.5993 73.2215C47.1349 73.4748 46.9027 73.8337 46.9027 74.2981C46.9027 74.8188 47.142 75.1846 47.6204 75.3957C48.0989 75.6068 48.7111 75.7124 49.4569 75.7124C50.1183 75.7124 50.5898 75.5576 50.8712 75.248C51.1527 74.9243 51.2934 74.4106 51.2934 73.707C51.2934 73.3411 51.2793 72.8345 51.2512 72.1872C51.223 71.5258 51.1949 70.8151 51.1668 70.0552C51.1386 69.2812 51.1105 68.5353 51.0823 67.8176C51.0542 67.0999 51.0401 66.4877 51.0401 65.9811C51.0401 65.5589 51.0401 65.1438 51.0401 64.7357C51.0401 64.3276 51.0401 63.9336 51.0401 63.5536C51.0401 63.1736 51.0331 62.8359 51.019 62.5404C51.0049 62.1885 50.9838 61.8578 50.9557 61.5482C50.9416 61.2386 50.9205 60.9572 50.8923 60.7039C50.8783 60.4506 50.8431 60.2395 50.7868 60.0706H53.9743ZM52.3489 64.1024C52.6585 64.1024 53.1017 64.1024 53.6787 64.1024C54.2557 64.0884 54.889 64.0672 55.5785 64.0391C56.2822 64.011 56.9858 63.9758 57.6894 63.9336C58.4071 63.8773 59.0685 63.821 59.6737 63.7647L59.7581 66.2767C59.1671 66.3329 58.5127 66.3822 57.795 66.4244C57.0773 66.4666 56.3666 66.5018 55.663 66.53C54.9593 66.544 54.312 66.5581 53.7209 66.5722C53.144 66.5863 52.6936 66.5933 52.37 66.5933L52.3489 64.1024Z" fill="url(#paint2_linear_5024_400)"/>
<path d="M30.0406 59.8595C30.0265 59.9721 30.0054 60.148 29.9772 60.3872C29.9491 60.6124 29.9209 60.8446 29.8928 61.0838C29.8787 61.309 29.8647 61.513 29.8506 61.696C29.8224 62.1041 29.7943 62.5544 29.7661 63.047C29.7521 63.5254 29.738 64.025 29.7239 64.5457C29.7099 65.0523 29.6958 65.566 29.6817 66.0866C29.6817 66.6073 29.6817 67.1139 29.6817 67.6065C29.6817 68.1835 29.6887 68.8238 29.7028 69.5274C29.7169 70.217 29.731 70.9065 29.745 71.5961C29.7732 72.2716 29.7873 72.8908 29.7873 73.4537C29.8013 74.0166 29.8084 74.4528 29.8084 74.7624C29.8084 75.6349 29.7099 76.3104 29.5128 76.7889C29.3299 77.2674 29.0625 77.5981 28.7107 77.781C28.3589 77.978 27.9508 78.0765 27.4864 78.0765C26.9798 78.0765 26.438 77.971 25.861 77.7599C25.284 77.5629 24.7422 77.2814 24.2356 76.9155C23.7431 76.5497 23.3349 76.1275 23.0113 75.649C22.7017 75.1565 22.5469 74.6287 22.5469 74.0658C22.5469 73.3903 22.8002 72.7219 23.3068 72.0605C23.8275 71.385 24.51 70.7658 25.3544 70.2029C26.2128 69.64 27.1346 69.1897 28.1196 68.8519C29.0625 68.5001 30.0335 68.2468 31.0327 68.092C32.0318 67.9231 32.9325 67.8387 33.7346 67.8387C34.8182 67.8387 35.7963 68.0216 36.6688 68.3875C37.5413 68.7393 38.2379 69.26 38.7586 69.9496C39.2793 70.6391 39.5396 71.4694 39.5396 72.4404C39.5396 73.2567 39.3848 74.0095 39.0752 74.6991C38.7656 75.3887 38.266 75.9867 37.5765 76.4934C36.901 76.9859 36.0003 77.3729 34.8745 77.6544C34.396 77.7529 33.9176 77.8232 33.4391 77.8654C32.9747 77.9217 32.5314 77.964 32.1092 77.9921L31.1382 75.269C31.6167 75.269 32.0741 75.262 32.5103 75.2479C32.9606 75.2198 33.3687 75.1776 33.7346 75.1213C34.3116 75.0087 34.8323 74.8398 35.2967 74.6147C35.7611 74.3895 36.127 74.094 36.3944 73.7281C36.6617 73.3622 36.7954 72.9259 36.7954 72.4193C36.7954 71.9409 36.6617 71.5328 36.3944 71.195C36.1411 70.8573 35.7822 70.5969 35.3178 70.414C34.8534 70.231 34.3116 70.1396 33.6924 70.1396C32.8058 70.1396 31.9052 70.231 30.9905 70.414C30.0898 70.5969 29.2243 70.8502 28.3941 71.1739C27.7749 71.4131 27.219 71.6946 26.7265 72.0183C26.2339 72.3279 25.8469 72.6515 25.5655 72.9893C25.284 73.327 25.1433 73.6507 25.1433 73.9603C25.1433 74.1292 25.1925 74.291 25.291 74.4458C25.4036 74.5865 25.5443 74.7132 25.7132 74.8258C25.8821 74.9383 26.051 75.0298 26.2198 75.1002C26.4028 75.1565 26.5576 75.1846 26.6842 75.1846C26.8812 75.1846 27.0431 75.1283 27.1697 75.0157C27.2964 74.8891 27.3597 74.6498 27.3597 74.298C27.3597 73.9181 27.3456 73.3763 27.3175 72.6726C27.3034 71.9549 27.2823 71.1598 27.2542 70.2873C27.2401 69.4148 27.2331 68.5494 27.2331 67.6909C27.2331 67.0999 27.2331 66.5018 27.2331 65.8967C27.2471 65.2915 27.2542 64.7146 27.2542 64.1657C27.2542 63.6169 27.2542 63.1314 27.2542 62.7092C27.2682 62.287 27.2753 61.9563 27.2753 61.7171C27.2753 61.5623 27.2682 61.3653 27.2542 61.126C27.2401 60.8868 27.219 60.6476 27.1908 60.4083C27.1768 60.155 27.1557 59.9721 27.1275 59.8595H30.0406ZM36.0566 62.1393C36.5914 62.3926 37.1895 62.7022 37.8509 63.0681C38.5264 63.4339 39.1667 63.7998 39.7718 64.1657C40.391 64.5175 40.8835 64.8342 41.2494 65.1156L39.9829 67.2687C39.7155 67.0436 39.3637 66.7903 38.9274 66.5088C38.5053 66.2274 38.0409 65.9389 37.5342 65.6434C37.0417 65.3478 36.5632 65.0734 36.0988 64.8201C35.6344 64.5527 35.2334 64.3416 34.8956 64.1868L36.0566 62.1393ZM23.1168 63.3003C23.736 63.3706 24.2778 63.4199 24.7422 63.448C25.2207 63.4621 25.6499 63.4691 26.0299 63.4691C26.5787 63.4691 27.1838 63.448 27.8452 63.4058C28.5066 63.3495 29.1821 63.2792 29.8717 63.1947C30.5612 63.0962 31.2297 62.9836 31.877 62.857C32.5385 62.7303 33.1365 62.5896 33.6713 62.4348L33.7346 65.0523C33.1436 65.193 32.5033 65.3197 31.8137 65.4323C31.1242 65.5308 30.4276 65.6222 29.7239 65.7067C29.0344 65.7911 28.3729 65.8544 27.7397 65.8967C27.1205 65.9389 26.5787 65.96 26.1143 65.96C25.4107 65.96 24.8337 65.953 24.3834 65.9389C23.933 65.9248 23.5249 65.8967 23.159 65.8544L23.1168 63.3003Z" fill="url(#paint3_linear_5024_400)"/>
<path d="M86.0854 37.5404C85.9446 38.6099 85.7617 39.7498 85.5365 40.96C85.3114 42.1703 85.0088 43.3946 84.6288 44.633C84.2207 46.0543 83.7423 47.2786 83.1934 48.3059C82.6446 49.3332 82.0395 50.1284 81.3781 50.6913C80.7307 51.2401 80.0201 51.5145 79.2461 51.5145C78.4721 51.5145 77.7544 51.2542 77.0929 50.7335C76.4456 50.1987 75.9249 49.4669 75.5309 48.5381C75.1509 47.6093 74.9609 46.5539 74.9609 45.3718C74.9609 44.1475 75.2072 42.9935 75.6998 41.9099C76.1923 40.8263 76.8748 39.8694 77.7473 39.0391C78.6339 38.1947 79.6612 37.5333 80.8292 37.0549C82.0113 36.5764 83.2849 36.3372 84.65 36.3372C85.9587 36.3372 87.1338 36.5482 88.1752 36.9704C89.2306 37.3926 90.1312 37.9766 90.8771 38.7225C91.6229 39.4683 92.1929 40.3408 92.5869 41.34C92.981 42.3391 93.178 43.4157 93.178 44.5697C93.178 46.0473 92.8754 47.3701 92.2703 48.5381C91.6652 49.7062 90.7645 50.6701 89.5683 51.4301C88.3862 52.19 86.9086 52.7107 85.1355 52.9921L83.5523 50.4802C83.9604 50.4379 84.3192 50.3887 84.6288 50.3324C84.9384 50.2761 85.234 50.2128 85.5154 50.1424C86.1909 49.9736 86.8171 49.7343 87.3941 49.4247C87.9852 49.101 88.4988 48.707 88.9351 48.2426C89.3713 47.7641 89.7091 47.2083 89.9483 46.575C90.2016 45.9417 90.3283 45.2451 90.3283 44.4852C90.3283 43.6549 90.2016 42.895 89.9483 42.2055C89.695 41.5159 89.3221 40.9178 88.8295 40.4112C88.337 39.8905 87.7389 39.4965 87.0353 39.2291C86.3316 38.9476 85.5225 38.8069 84.6077 38.8069C83.4819 38.8069 82.4898 39.011 81.6314 39.4191C80.7729 39.8131 80.0482 40.3268 79.4572 40.96C78.8661 41.5933 78.4158 42.2758 78.1062 43.0076C77.8107 43.7394 77.6629 44.436 77.6629 45.0974C77.6629 45.801 77.7473 46.3921 77.9162 46.8705C78.0851 47.3349 78.2891 47.6867 78.5284 47.926C78.7817 48.1511 79.049 48.2637 79.3305 48.2637C79.626 48.2637 79.9145 48.116 80.196 47.8204C80.4915 47.5108 80.78 47.0464 81.0614 46.4272C81.3429 45.808 81.6243 45.027 81.9058 44.0841C82.2295 43.0709 82.5039 41.9873 82.729 40.8334C82.9542 39.6794 83.116 38.5536 83.2145 37.4559L86.0854 37.5404Z" fill="url(#paint4_linear_5024_400)"/>
<path d="M61.2779 34.564H64.1909C64.1628 35.155 64.1135 35.9149 64.0431 36.8437C63.9728 37.7725 63.8391 38.8069 63.6421 39.9468C63.4591 41.0726 63.1777 42.2547 62.7977 43.4931C62.4178 44.7315 61.8971 45.9698 61.2357 47.2082C60.5883 48.4326 59.758 49.6076 58.7448 50.7334C57.7456 51.8452 56.5284 52.8373 55.0929 53.7098C54.8678 53.3861 54.5582 53.0413 54.1642 52.6755C53.7842 52.3096 53.3831 51.9789 52.9609 51.6833C54.3682 50.8953 55.5503 49.9946 56.5072 48.9814C57.4642 47.9682 58.2452 46.9057 58.8503 45.7939C59.4555 44.6681 59.9199 43.5423 60.2435 42.4165C60.5672 41.2766 60.7994 40.2001 60.9401 39.1868C61.0809 38.1736 61.1653 37.2659 61.1934 36.4638C61.2216 35.6616 61.2497 35.0284 61.2779 34.564ZM64.0854 35.1339C64.0994 35.4013 64.1276 35.8235 64.1698 36.4004C64.212 36.9774 64.2965 37.667 64.4231 38.4691C64.5498 39.2713 64.7397 40.1438 64.993 41.0866C65.2604 42.0154 65.6122 42.9724 66.0485 43.9575C66.4847 44.9425 67.0265 45.9065 67.6739 46.8494C68.3212 47.7923 69.1023 48.6648 70.017 49.4669C70.9458 50.269 72.0294 50.9656 73.2678 51.5567C72.8597 51.8522 72.4797 52.197 72.1279 52.591C71.7901 52.9851 71.5157 53.358 71.3046 53.7098C70.0099 53.0625 68.8771 52.2955 67.9061 51.4089C66.9491 50.5083 66.1259 49.5373 65.4363 48.4959C64.7608 47.4404 64.1979 46.3709 63.7476 45.2873C63.2973 44.2037 62.9314 43.1412 62.65 42.0999C62.3826 41.0444 62.1785 40.0664 62.0378 39.1657C61.8971 38.2651 61.7986 37.484 61.7423 36.8226C61.7 36.1612 61.6649 35.6827 61.6367 35.3872L64.0854 35.1339Z" fill="url(#paint5_linear_5024_400)"/>
<path d="M32.6334 38.1736H51.2938V40.7489H32.6334V38.1736ZM36.9608 47.736H46.7764V50.3113H36.9608V47.736ZM40.5915 34.0785H43.2723V53.8998H40.5915V34.0785ZM39.8316 39.1024L42.1536 39.8412C41.5484 41.3611 40.8167 42.8106 39.9582 44.1897C39.0998 45.5688 38.1358 46.8213 37.0663 47.9471C36.0109 49.0588 34.871 50.0087 33.6467 50.7968C33.5059 50.5857 33.323 50.3535 33.0978 50.1002C32.8727 49.8328 32.6475 49.5725 32.4223 49.3192C32.2112 49.0518 32.0002 48.8407 31.7891 48.6859C32.6616 48.2074 33.4989 47.6234 34.301 46.9339C35.1032 46.2443 35.849 45.4773 36.5386 44.633C37.2422 43.7886 37.8684 42.902 38.4173 41.9732C38.9802 41.0304 39.4516 40.0734 39.8316 39.1024ZM44.0534 39.1658C44.56 40.4041 45.2214 41.6214 46.0376 42.8176C46.8679 43.9997 47.8108 45.0763 48.8662 46.0473C49.9217 47.0183 51.0334 47.8134 52.2014 48.4326C51.9903 48.6015 51.7581 48.8196 51.5048 49.087C51.2656 49.3543 51.0334 49.6358 50.8082 49.9313C50.5831 50.2128 50.3931 50.4731 50.2383 50.7124C49.014 49.9524 47.8671 49.0236 46.7975 47.926C45.7421 46.8142 44.7922 45.5758 43.9478 44.2108C43.1035 42.8457 42.3717 41.4174 41.7525 39.9257L44.0534 39.1658Z" fill="url(#paint6_linear_5024_400)"/>
<path d="M13.5312 35.345H28.2653V53.6043H25.5423V37.8992H16.1277V53.6465H13.5312V35.345ZM15.3044 42.4376H26.661V44.9285H15.3044V42.4376ZM15.3044 49.6991H26.6821V52.2533H15.3044V49.6991Z" fill="url(#paint7_linear_5024_400)"/>
<defs>
<linearGradient id="paint0_linear_5024_400" x1="6.524" y1="21.5264" x2="109.918" y2="2.34233" gradientUnits="userSpaceOnUse">
<stop offset="0.119222" stop-color="#0089D4"/>
<stop offset="0.710009" stop-color="#14BAF8"/>
<stop offset="1" stop-color="#6FD8FF"/>
</linearGradient>
<linearGradient id="paint1_linear_5024_400" x1="15.3804" y1="41.4497" x2="95.6566" y2="16.1288" gradientUnits="userSpaceOnUse">
<stop offset="0.119222" stop-color="#0089D4"/>
<stop offset="0.710009" stop-color="#14BAF8"/>
<stop offset="1" stop-color="#6FD8FF"/>
</linearGradient>
<linearGradient id="paint2_linear_5024_400" x1="15.3805" y1="41.4497" x2="95.6567" y2="16.1288" gradientUnits="userSpaceOnUse">
<stop offset="0.119222" stop-color="#0089D4"/>
<stop offset="0.710009" stop-color="#14BAF8"/>
<stop offset="1" stop-color="#6FD8FF"/>
</linearGradient>
<linearGradient id="paint3_linear_5024_400" x1="15.3844" y1="41.4497" x2="95.6606" y2="16.1288" gradientUnits="userSpaceOnUse">
<stop offset="0.119222" stop-color="#0089D4"/>
<stop offset="0.710009" stop-color="#14BAF8"/>
<stop offset="1" stop-color="#6FD8FF"/>
</linearGradient>
<linearGradient id="paint4_linear_5024_400" x1="15.3849" y1="41.4497" x2="95.6611" y2="16.1288" gradientUnits="userSpaceOnUse">
<stop offset="0.119222" stop-color="#0089D4"/>
<stop offset="0.710009" stop-color="#14BAF8"/>
<stop offset="1" stop-color="#6FD8FF"/>
</linearGradient>
<linearGradient id="paint5_linear_5024_400" x1="15.3804" y1="41.4497" x2="95.6566" y2="16.1288" gradientUnits="userSpaceOnUse">
<stop offset="0.119222" stop-color="#0089D4"/>
<stop offset="0.710009" stop-color="#14BAF8"/>
<stop offset="1" stop-color="#6FD8FF"/>
</linearGradient>
<linearGradient id="paint6_linear_5024_400" x1="15.3808" y1="41.4497" x2="95.657" y2="16.1288" gradientUnits="userSpaceOnUse">
<stop offset="0.119222" stop-color="#0089D4"/>
<stop offset="0.710009" stop-color="#14BAF8"/>
<stop offset="1" stop-color="#6FD8FF"/>
</linearGradient>
<linearGradient id="paint7_linear_5024_400" x1="15.3823" y1="41.4497" x2="95.6585" y2="16.1288" gradientUnits="userSpaceOnUse">
<stop offset="0.119222" stop-color="#0089D4"/>
<stop offset="0.710009" stop-color="#14BAF8"/>
<stop offset="1" stop-color="#6FD8FF"/>
</linearGradient>
</defs>
</svg>
