<svg width="750" height="291" viewBox="0 0 750 291" fill="none" xmlns="http://www.w3.org/2000/svg">
<path d="M-18 0.622803H776.699V161.897H-18V0.622803Z" fill="url(#paint0_linear_5004_180)"/>
<path d="M-16 1H778.699V162.274H-16V1Z" fill="url(#paint1_linear_5004_180)"/>
<path d="M182 218.235H1L56.5523 122.847L1 27.3771H182V218.235Z" fill="url(#paint2_linear_5004_180)"/>
<path d="M182.198 94.9536V27.7242L100.062 48.4354L182.198 94.9536Z" fill="#076FA9"/>
<path d="M860.5 99.9487C605.534 35.9701 352.5 137.874 100 48.4355V238.864C358.5 317.316 610.034 219.979 860.5 290.377V99.9487Z" fill="url(#paint3_linear_5004_180)"/>
<path d="M160.723 175.941L166.301 176.598C165.817 178.635 165.21 180.675 164.481 182.719C163.79 184.732 162.867 186.648 161.71 188.466C160.558 190.251 159.108 191.895 157.36 193.4C155.65 194.874 153.518 196.089 150.962 197.045C150.737 196.286 150.331 195.435 149.744 194.493C149.156 193.551 148.581 192.803 148.018 192.248C150.202 191.493 152.026 190.521 153.493 189.332C154.959 188.143 156.162 186.819 157.102 185.359C158.042 183.898 158.781 182.362 159.32 180.75C159.893 179.142 160.361 177.539 160.723 175.941ZM150.75 183.721L154.146 179.775C155.811 180.459 157.494 181.286 159.195 182.254C160.931 183.226 162.559 184.221 164.08 185.237C165.635 186.258 166.938 187.197 167.989 188.053L164.481 192.51C163.476 191.554 162.198 190.548 160.647 189.493C159.134 188.408 157.512 187.362 155.78 186.355C154.087 185.318 152.41 184.44 150.75 183.721ZM172.805 175.164L178.589 175.845C178.589 175.845 178.571 176 178.534 176.309C178.502 176.585 178.446 176.91 178.367 177.285C178.327 177.629 178.277 177.902 178.218 178.105C177.619 182.014 177.068 185.212 176.565 187.701C176.067 190.156 175.582 192.054 175.11 193.394C174.677 194.705 174.204 195.609 173.691 196.107C173.098 196.7 172.51 197.102 171.926 197.313C171.377 197.528 170.735 197.644 170 197.662C169.364 197.727 168.545 197.718 167.543 197.635C166.544 197.517 165.479 197.375 164.347 197.206C164.414 196.342 164.353 195.375 164.165 194.305C164.015 193.206 163.778 192.253 163.454 191.447C164.337 191.655 165.138 191.819 165.857 191.939C166.58 192.024 167.148 192.091 167.561 192.139C168.211 192.251 168.752 192.105 169.183 191.702C169.465 191.386 169.772 190.707 170.104 189.664C170.44 188.586 170.807 186.954 171.204 184.767C171.635 182.583 172.132 179.692 172.696 176.094L172.805 175.164ZM154.443 201.277L160.124 201.945L158.799 213.204C158.714 213.927 158.728 214.4 158.842 214.622C158.959 214.811 159.259 214.933 159.741 214.99C159.844 215.002 160.016 215.022 160.257 215.051C160.498 215.079 160.756 215.11 161.032 215.142C161.307 215.174 161.565 215.205 161.806 215.233C162.082 215.266 162.271 215.288 162.375 215.3C162.719 215.34 162.991 215.25 163.192 215.03C163.392 214.809 163.589 214.326 163.781 213.581C163.978 212.801 164.186 211.621 164.407 210.041C164.719 210.357 165.149 210.705 165.698 211.084C166.285 211.432 166.875 211.763 167.466 212.077C168.096 212.361 168.659 212.619 169.155 212.852C168.72 215.069 168.205 216.772 167.612 217.958C167.049 219.184 166.345 219.973 165.5 220.328C164.686 220.721 163.659 220.844 162.42 220.698C162.179 220.67 161.852 220.631 161.439 220.583C161.06 220.538 160.664 220.492 160.251 220.443C159.838 220.394 159.442 220.348 159.063 220.303C158.684 220.259 158.375 220.222 158.133 220.194C156.55 220.007 155.354 219.64 154.546 219.091C153.768 218.581 153.283 217.808 153.091 216.773C152.898 215.738 152.903 214.36 153.106 212.638L154.443 201.277ZM148.938 202.671L153.693 204.54C153.377 206.038 152.973 207.544 152.48 209.057C151.988 210.57 151.403 211.984 150.724 213.301C150.05 214.583 149.222 215.689 148.239 216.621L144.017 213.349C144.845 212.539 145.569 211.577 146.189 210.463C146.813 209.315 147.343 208.068 147.781 206.724C148.253 205.383 148.639 204.032 148.938 202.671ZM156.05 197.853L160.039 194.658C161.076 195.338 162.135 196.126 163.217 197.021C164.302 197.882 165.313 198.786 166.248 199.734C167.222 200.652 167.994 201.51 168.563 202.31L164.216 205.883C163.72 205.056 163.021 204.171 162.12 203.227C161.253 202.288 160.281 201.353 159.204 200.423C158.13 199.459 157.079 198.603 156.05 197.853ZM166.658 205.594L171.905 204.17C172.68 205.587 173.358 207.098 173.937 208.702C174.516 210.306 174.992 211.898 175.365 213.478C175.741 215.023 175.979 216.412 176.078 217.646L170.337 219.274C170.345 218.018 170.178 216.62 169.836 215.078C169.497 213.503 169.06 211.881 168.523 210.212C167.987 208.543 167.365 207.004 166.658 205.594ZM152.767 172.806L175.439 175.474L174.831 180.638L152.159 177.97L152.767 172.806ZM132.34 184.434L147.472 186.215L146.919 190.914L131.787 189.134L132.34 184.434ZM134.218 170.256L149.04 172.001L148.493 176.649L133.671 174.904L134.218 170.256ZM131.508 191.509L146.639 193.29L146.092 197.938L130.961 196.157L131.508 191.509ZM130.873 176.879L149.723 179.097L149.146 184.003L130.296 181.785L130.873 176.879ZM133.354 198.952L145.904 200.429L144.05 216.18L131.501 214.703L132.078 209.797L139.463 210.666L140.162 204.727L132.777 203.858L133.354 198.952ZM130.566 198.624L135.678 199.226L133.588 216.991L128.475 216.389L130.566 198.624Z" fill="white"/>
<path d="M192.626 191.711L221.284 194.089L220.789 200.048L192.132 197.671L192.626 191.711ZM205.949 205.339L223.413 206.788L222.927 212.644L205.463 211.195L205.949 205.339ZM203.428 196.103L209.906 196.641L207.829 221.671L201.416 220.356L203.428 196.103ZM190.6 200.413L197.022 201.624C195.892 206.853 194.33 211.419 192.337 215.324C190.343 219.228 187.754 222.336 184.571 224.646C184.257 224.237 183.812 223.731 183.236 223.126C182.66 222.522 182.048 221.932 181.4 221.356C180.787 220.784 180.251 220.322 179.793 219.971C182.764 218.13 185.102 215.524 186.808 212.152C188.517 208.746 189.781 204.833 190.6 200.413ZM195.085 207.36C195.684 209.775 196.562 211.779 197.717 213.37C198.909 214.93 200.32 216.16 201.95 217.061C203.617 217.93 205.458 218.587 207.474 219.032C209.489 219.478 211.637 219.795 213.917 219.984C214.47 220.03 215.213 220.092 216.145 220.169C217.113 220.25 218.167 220.337 219.307 220.432C220.481 220.529 221.673 220.628 222.882 220.728C224.094 220.794 225.219 220.87 226.255 220.956C227.294 221.007 228.161 221.045 228.855 221.067C228.501 221.56 228.137 222.173 227.763 222.907C227.426 223.61 227.104 224.349 226.796 225.123C226.489 225.898 226.256 226.609 226.098 227.257L223.455 227.037L213.09 226.177C210.085 225.928 207.338 225.491 204.85 224.867C202.363 224.244 200.146 223.294 198.199 222.02C196.284 220.782 194.617 219.079 193.197 216.909C191.811 214.741 190.702 211.971 189.868 208.597L195.085 207.36ZM204.902 177.076L211.536 177.626L210.753 187.058L204.12 186.508L204.902 177.076ZM185.605 180.745L230.12 184.439L229.041 197.446L222.667 196.917L223.26 189.766L191.234 187.108L190.641 194.26L184.526 193.752L185.605 180.745Z" fill="white"/>
<path d="M249.473 198.527L281.277 196.122L281.825 202.039L250.015 204.547L249.473 198.527ZM269.804 185.415L274.642 182.774C275.497 183.622 276.38 184.575 277.292 185.634C278.204 186.693 279.046 187.748 279.82 188.799C280.595 189.815 281.201 190.753 281.639 191.611L276.422 194.491C276.052 193.671 275.498 192.737 274.759 191.687C274.022 190.604 273.216 189.516 272.341 188.424C271.5 187.335 270.655 186.332 269.804 185.415ZM247.539 181.28L253.4 183.542C251.909 186.547 250.177 189.521 248.204 192.464C246.265 195.409 244.181 198.155 241.952 200.702C239.758 203.25 237.514 205.466 235.219 207.349C235.076 206.82 234.819 206.146 234.449 205.326C234.079 204.506 233.674 203.685 233.235 202.861C232.831 202.039 232.453 201.358 232.102 200.817C234.096 199.334 236.038 197.552 237.928 195.472C239.817 193.392 241.594 191.15 243.259 188.745C244.926 186.305 246.353 183.817 247.539 181.28ZM241.342 195.875L248.04 189.851L248.138 189.961L245.879 229.572L239.441 229.205L241.342 195.875ZM260.134 182.363L266.468 182.725C266.221 188.266 266.168 193.454 266.309 198.289C266.487 203.091 266.87 207.332 267.459 211.011C268.048 214.691 268.869 217.637 269.923 219.85C270.98 222.028 272.281 223.266 273.826 223.562C274.413 223.63 274.918 222.999 275.341 221.669C275.764 220.339 276.161 218.244 276.533 215.383C276.89 215.82 277.383 216.299 278.013 216.821C278.643 217.344 279.275 217.831 279.909 218.284C280.545 218.702 281.047 219.026 281.416 219.255C280.775 222.587 280.022 225.131 279.158 226.887C278.328 228.645 277.446 229.81 276.51 230.382C275.573 230.988 274.622 231.229 273.657 231.105C271.213 230.722 269.153 229.702 267.477 228.044C265.801 226.386 264.436 224.138 263.382 221.3C262.363 218.464 261.583 215.103 261.041 211.218C260.533 207.335 260.226 202.977 260.12 198.144C260.015 193.277 260.02 188.017 260.134 182.363Z" fill="white"/>
<path d="M310.203 201.211L310.056 205.628L325.752 206.148L325.898 201.731L310.203 201.211ZM310.511 191.908L310.366 196.273L326.062 196.793L326.206 192.428L310.511 191.908ZM305.02 186.471L332.357 187.376L331.553 211.647L304.216 210.742L305.02 186.471ZM303.756 215.201L331.924 216.134L331.739 221.747L303.57 220.814L303.756 215.201ZM299.768 225.63L333.342 226.743L333.154 232.408L299.581 231.295L299.768 225.63ZM285.817 186.615L303.071 187.187L302.88 192.956L285.625 192.384L285.817 186.615ZM285.788 201.598L301.692 202.125L301.502 207.842L285.599 207.315L285.788 201.598ZM284.043 221.311C285.581 220.946 287.294 220.535 289.183 220.077C291.106 219.586 293.136 219.046 295.271 218.458C297.408 217.835 299.509 217.228 301.575 216.637L302.47 222.598C299.528 223.472 296.55 224.362 293.537 225.268C290.524 226.174 287.757 226.984 285.236 227.698L284.043 221.311ZM291.458 189.091L297.434 189.289L296.377 221.2L290.368 221.989L291.458 189.091ZM315.964 189.071L321.213 189.245L320.566 208.786L321.137 208.805L320.469 228.97L314.077 228.758L314.745 208.593L315.316 208.612L315.964 189.071Z" fill="white"/>
<path d="M365.677 203.916L385.333 204.047L385.297 209.507L365.641 209.376L365.677 203.916ZM354.392 227.606L378.831 227.768L378.795 233.228L354.356 233.066L354.392 227.606ZM362.694 199.008L369.038 199.05L368.91 218.342L362.566 218.3L362.694 199.008ZM351.199 215L382.243 215.206L382.11 235.122L375.715 235.08L375.811 220.624L357.247 220.501L357.151 234.956L351.067 234.916L351.199 215ZM360.647 186.15L367.147 186.194L367.084 195.709L360.584 195.666L360.647 186.15ZM345.007 192.183L386.138 192.456L386.098 198.384L344.967 198.111L345.007 192.183ZM341.991 192.163L348.231 192.204L348.144 205.308C348.13 207.422 348.027 209.762 347.837 212.326C347.682 214.856 347.404 217.471 347.005 220.173C346.606 222.839 346.034 225.436 345.289 227.961C344.579 230.487 343.628 232.769 342.436 234.807C342.057 234.457 341.522 234.038 340.832 233.548C340.176 233.093 339.503 232.638 338.813 232.183C338.122 231.762 337.535 231.446 337.051 231.235C338.138 229.37 339.001 227.33 339.64 225.116C340.279 222.901 340.744 220.634 341.037 218.313C341.365 215.992 341.588 213.723 341.706 211.505C341.825 209.253 341.891 207.173 341.904 205.266L341.991 192.163Z" fill="white"/>
<path d="M406.213 197.781C407.442 197.916 408.818 198.009 410.339 198.058C411.887 198.081 413.447 198.076 415.02 198.045C416.619 197.987 418.151 197.903 419.616 197.793C421.08 197.657 422.344 197.526 423.409 197.398L423.512 202.557C422.287 202.688 420.943 202.808 419.478 202.917C418.013 203 416.507 203.056 414.96 203.087C413.414 203.118 411.894 203.122 410.4 203.098C408.932 203.048 407.57 202.981 406.315 202.9L406.213 197.781ZM409.753 214.794C409.606 215.463 409.498 216.066 409.429 216.6C409.359 217.109 409.329 217.629 409.34 218.162C409.349 218.589 409.463 218.987 409.684 219.356C409.904 219.698 410.23 219.998 410.662 220.256C411.12 220.487 411.697 220.663 412.393 220.782C413.115 220.874 413.982 220.91 414.996 220.89C416.782 220.854 418.46 220.741 420.03 220.55C421.599 220.332 423.26 220.032 425.013 219.65L425.201 225.047C423.926 225.313 422.45 225.529 420.773 225.696C419.122 225.862 417.164 225.968 414.898 226.013C411.458 226.082 408.888 225.56 407.185 224.447C405.482 223.307 404.61 221.711 404.569 219.658C404.554 218.885 404.591 218.084 404.681 217.255C404.797 216.399 404.952 215.463 405.145 214.445L409.753 214.794ZM400.001 195.224C399.899 195.493 399.787 195.869 399.663 196.351C399.539 196.834 399.415 197.303 399.291 197.759C399.193 198.214 399.12 198.562 399.072 198.803C399.003 199.365 398.884 200.101 398.716 201.011C398.573 201.894 398.42 202.897 398.256 204.021C398.118 205.117 397.98 206.24 397.843 207.39C397.706 208.539 397.595 209.648 397.509 210.717C397.45 211.785 397.429 212.719 397.445 213.519C397.452 213.892 397.461 214.319 397.471 214.799C397.507 215.278 397.569 215.717 397.657 216.115C397.834 215.658 398.025 215.201 398.23 214.743C398.434 214.286 398.638 213.828 398.842 213.371C399.046 212.887 399.224 212.43 399.375 212L401.894 213.91C401.542 215.011 401.179 216.192 400.804 217.453C400.456 218.713 400.133 219.906 399.835 221.033C399.564 222.132 399.355 223.043 399.21 223.766C399.162 224.06 399.116 224.394 399.07 224.769C399.051 225.142 399.043 225.436 399.047 225.649C399.052 225.863 399.057 226.116 399.063 226.409C399.096 226.729 399.128 227.021 399.16 227.287L394.527 227.7C394.1 226.321 393.703 224.489 393.337 222.203C392.971 219.889 392.761 217.373 392.707 214.654C392.677 213.161 392.713 211.64 392.816 210.091C392.918 208.541 393.049 207.059 393.207 205.642C393.365 204.198 393.512 202.889 393.649 201.712C393.812 200.535 393.952 199.559 394.07 198.783C394.113 198.222 394.167 197.594 394.233 196.9C394.325 196.178 394.378 195.496 394.392 194.856L400.001 195.224Z" fill="white"/>
<path d="M440.309 207.239L441.878 226.362L436.073 226.839L434.976 213.468L429.586 213.91L429.115 208.157L440.309 207.239ZM441.678 223.927C442.824 225.607 444.365 226.785 446.298 227.461C448.267 228.134 450.585 228.413 453.254 228.299C454.884 228.235 456.823 228.128 459.071 227.978C461.317 227.794 463.682 227.583 466.167 227.344C468.652 227.105 471.066 226.855 473.41 226.593C475.786 226.294 477.882 225.983 479.699 225.66C479.531 226.161 479.338 226.768 479.118 227.482C478.93 228.158 478.762 228.867 478.614 229.61C478.469 230.387 478.369 231.074 478.314 231.669C476.661 231.875 474.765 232.082 472.625 232.293C470.489 232.537 468.263 232.755 465.948 232.945C463.671 233.166 461.477 233.346 459.367 233.485C457.256 233.623 455.369 233.725 453.705 233.792C450.549 233.912 447.831 233.631 445.548 232.948C443.301 232.263 441.299 230.967 439.542 229.058C438.66 230.174 437.726 231.294 436.74 232.419C435.788 233.54 434.737 234.722 433.587 235.964L430.148 230.299C431.157 229.451 432.21 228.512 433.309 227.483C434.407 226.454 435.452 225.411 436.443 224.356L441.678 223.927ZM427.447 192.276L432.119 188.815C433.117 189.533 434.125 190.372 435.143 191.332C436.193 192.254 437.156 193.184 438.033 194.121C438.91 195.058 439.608 195.939 440.128 196.766L435.127 200.672C434.679 199.874 434.032 198.988 433.187 198.014C432.339 197.005 431.405 196.004 430.384 195.009C429.398 194.012 428.419 193.101 427.447 192.276ZM443.504 208.02L475.325 205.41L475.695 209.919L443.873 212.529L443.504 208.02ZM442.655 216.125L477.586 213.259L477.96 217.82L443.029 220.685L442.655 216.125ZM450.219 204.652L456.023 204.176L457.09 217.184L451.286 217.66L450.219 204.652ZM462.035 203.683L467.943 203.198L469.01 216.206L463.102 216.691L462.035 203.683ZM443.841 194.323L451.407 193.702L451.233 191.577L441.334 192.389L441.011 188.45L456.144 187.209L456.969 197.263L444.168 198.313L443.841 194.323ZM442.286 194.45L447.365 194.034L447.777 199.061C447.823 199.614 447.956 199.968 448.178 200.124C448.396 200.245 448.817 200.28 449.438 200.229C449.611 200.215 449.87 200.193 450.216 200.165C450.561 200.137 450.941 200.106 451.356 200.072C451.805 200.035 452.22 200.001 452.6 199.97C452.98 199.938 453.256 199.916 453.429 199.902C453.982 199.856 454.335 199.705 454.488 199.449C454.641 199.193 454.718 198.648 454.719 197.813C455.228 198.084 455.91 198.341 456.765 198.584C457.651 198.79 458.463 198.932 459.2 199.011C459.068 200.796 458.63 202.031 457.886 202.719C457.177 203.403 456.028 203.81 454.439 203.94C454.197 203.96 453.817 203.992 453.298 204.034C452.815 204.074 452.297 204.116 451.744 204.162C451.191 204.207 450.655 204.251 450.137 204.293C449.653 204.333 449.291 204.363 449.049 204.383C447.494 204.51 446.273 204.471 445.387 204.266C444.532 204.023 443.9 203.518 443.489 202.752C443.078 201.985 442.816 200.911 442.703 199.529L442.286 194.45ZM460.84 192.928L468.458 192.303L468.284 190.179L458.23 191.003L457.907 187.064L473.247 185.806L474.072 195.86L461.167 196.919L460.84 192.928ZM459.337 193.052L464.416 192.635L464.828 197.662C464.873 198.215 465.007 198.569 465.228 198.725C465.447 198.846 465.885 198.88 466.541 198.826C466.714 198.812 466.973 198.791 467.318 198.762C467.698 198.731 468.113 198.697 468.562 198.66C469.011 198.623 469.426 198.589 469.806 198.558C470.221 198.524 470.532 198.499 470.739 198.482C471.292 198.436 471.627 198.287 471.746 198.034C471.899 197.778 471.99 197.196 472.02 196.29C472.532 196.595 473.215 196.87 474.07 197.113C474.957 197.318 475.768 197.46 476.505 197.539C476.376 199.358 475.94 200.612 475.196 201.299C474.487 201.983 473.338 202.39 471.749 202.521C471.472 202.543 471.075 202.576 470.557 202.618C470.038 202.661 469.485 202.706 468.898 202.754C468.345 202.8 467.81 202.844 467.291 202.886C466.773 202.929 466.393 202.96 466.151 202.98C464.597 203.107 463.376 203.068 462.489 202.863C461.6 202.623 460.95 202.119 460.54 201.353C460.129 200.587 459.867 199.513 459.753 198.131L459.337 193.052ZM462.647 221.32L466.995 218.354C468.284 218.805 469.632 219.338 471.039 219.953C472.443 220.533 473.78 221.137 475.049 221.763C476.315 222.355 477.404 222.909 478.316 223.426L472.132 226.281C471.097 225.531 469.69 224.707 467.912 223.809C466.166 222.874 464.411 222.044 462.647 221.32ZM453.317 219.528L458.912 220.948C457.701 222.299 456.158 223.626 454.282 224.928C452.406 226.229 450.6 227.317 448.862 228.19C448.486 227.838 448.003 227.46 447.413 227.056C446.855 226.615 446.264 226.194 445.64 225.793C445.016 225.392 444.483 225.053 444.043 224.776C445.795 224.076 447.52 223.274 449.22 222.369C450.917 221.43 452.283 220.483 453.317 219.528Z" fill="white"/>
<path d="M497.742 193.533C499.239 193.549 500.733 193.53 502.225 193.476C503.751 193.42 505.291 193.328 506.846 193.199C510.024 192.937 513.174 192.538 516.295 192.003C519.416 191.467 522.303 190.829 524.955 190.088L525.481 196.463C522.786 197.102 519.875 197.655 516.748 198.122C513.621 198.589 510.487 198.969 507.346 199.263C505.826 199.388 504.321 199.495 502.833 199.583C501.341 199.636 499.831 199.674 498.303 199.696L497.742 193.533ZM516.713 183.15C516.684 183.64 516.659 184.181 516.638 184.774C516.652 185.364 516.665 185.937 516.676 186.493C516.687 187.048 516.715 187.811 516.76 188.781C516.802 189.717 516.855 190.774 516.917 191.951C517.011 193.091 517.109 194.283 517.212 195.527C517.409 197.911 517.626 200.119 517.863 202.152C518.135 204.182 518.395 206.074 518.644 207.827C518.925 209.543 519.161 211.141 519.353 212.621C519.541 214.066 519.687 215.411 519.79 216.655C519.901 218.002 519.815 219.279 519.532 220.485C519.28 221.654 518.791 222.685 518.065 223.58C517.342 224.509 516.342 225.253 515.066 225.81C513.828 226.399 512.276 226.771 510.41 226.925C506.817 227.221 503.924 226.729 501.731 225.449C499.539 224.169 498.33 222.164 498.105 219.435C497.959 217.673 498.298 216.08 499.119 214.655C499.975 213.228 501.22 212.082 502.853 211.217C504.518 210.314 506.525 209.766 508.874 209.572C511.327 209.37 513.579 209.462 515.628 209.85C517.675 210.203 519.546 210.744 521.241 211.474C522.97 212.201 524.533 213.011 525.928 213.905C527.324 214.798 528.561 215.67 529.64 216.521L526.617 222.248C524.459 220.548 522.374 219.103 520.363 217.912C518.386 216.718 516.452 215.834 514.561 215.26C512.67 214.685 510.74 214.479 508.771 214.642C507.32 214.761 506.152 215.153 505.268 215.818C504.415 216.445 504.029 217.242 504.108 218.209C504.197 219.28 504.727 220.019 505.7 220.426C506.673 220.832 507.833 220.98 509.18 220.869C510.251 220.781 511.082 220.521 511.672 220.09C512.263 219.658 512.668 219.086 512.887 218.372C513.107 217.658 513.175 216.8 513.093 215.798C513.018 214.9 512.887 213.728 512.698 212.283C512.507 210.803 512.286 209.186 512.037 207.433C511.785 205.645 511.545 203.786 511.316 201.857C511.085 199.894 510.892 197.979 510.738 196.113C510.576 194.144 510.428 192.347 510.294 190.724C510.16 189.1 510.044 187.909 509.947 187.152C509.913 186.737 509.834 186.205 509.711 185.554C509.585 184.869 509.449 184.271 509.302 183.762L516.713 183.15ZM491.466 185.755C491.39 186.109 491.292 186.604 491.171 187.24C491.049 187.876 490.928 188.512 490.806 189.148C490.717 189.747 490.65 190.205 490.607 190.521C490.491 191.227 490.381 192.21 490.276 193.47C490.206 194.728 490.114 196.145 490 197.719C489.884 199.26 489.805 200.831 489.763 202.435C489.721 204.038 489.691 205.571 489.673 207.034C489.689 208.494 489.74 209.742 489.825 210.778C489.865 211.262 489.928 211.813 490.014 212.432C490.1 213.051 490.198 213.617 490.31 214.13C490.501 213.488 490.693 212.863 490.886 212.256C491.114 211.646 491.325 211.037 491.518 210.43C491.746 209.82 491.958 209.228 492.154 208.655L495.573 210.878C495.24 212.331 494.879 213.857 494.489 215.454C494.099 217.052 493.755 218.576 493.458 220.027C493.192 221.44 492.993 222.622 492.863 223.572C492.822 223.923 492.788 224.343 492.758 224.833C492.729 225.322 492.743 225.703 492.801 225.977C492.823 226.253 492.85 226.582 492.882 226.962C492.916 227.376 492.966 227.772 493.032 228.149L487.262 229.043C486.561 227.292 485.885 224.999 485.234 222.166C484.583 219.333 484.113 216.171 483.825 212.682C483.663 210.712 483.581 208.667 483.58 206.545C483.579 204.423 483.618 202.368 483.697 200.379C483.774 198.355 483.849 196.522 483.922 194.882C484.03 193.238 484.112 191.909 484.168 190.896C484.211 190.162 484.247 189.324 484.273 188.383C484.3 187.441 484.298 186.572 484.267 185.774L491.466 185.755ZM520.792 180.727C521.191 181.355 521.582 182.088 521.964 182.926C522.378 183.726 522.776 184.546 523.158 185.384C523.538 186.187 523.858 186.909 524.12 187.548L520.59 189.039C520.286 188.299 519.944 187.527 519.564 186.724C519.22 185.918 518.858 185.113 518.478 184.309C518.133 183.503 517.76 182.768 517.357 182.106L520.792 180.727ZM525.993 178.628C526.392 179.256 526.8 179.988 527.217 180.823C527.631 181.624 528.028 182.426 528.407 183.229C528.821 184.03 529.16 184.767 529.424 185.441L525.942 186.876C525.471 185.802 524.941 184.646 524.352 183.407C523.76 182.134 523.162 181.001 522.558 180.007L525.993 178.628Z" fill="white"/>
<path d="M583.342 216.897C582.149 218.028 580.762 218.973 579.182 219.73C577.601 220.487 575.753 220.885 573.639 220.924C571.698 220.96 570.108 220.313 568.87 218.984C567.667 217.654 567.042 215.724 566.995 213.193C566.969 211.807 567.029 210.315 567.172 208.717C567.35 207.084 567.546 205.451 567.758 203.818C567.971 202.184 568.15 200.638 568.297 199.179C568.477 197.685 568.557 196.348 568.535 195.17C568.511 193.887 568.182 192.94 567.546 192.328C566.91 191.681 566.038 191.367 564.929 191.388C563.716 191.41 562.372 191.868 560.897 192.762C559.422 193.622 557.917 194.724 556.381 196.07C554.846 197.416 553.382 198.847 551.988 200.364C550.629 201.88 549.442 203.323 548.427 204.694L548.228 196.688C548.839 195.984 549.638 195.154 550.626 194.2C551.649 193.245 552.792 192.253 554.056 191.224C555.354 190.195 556.706 189.234 558.111 188.341C559.55 187.413 560.993 186.658 562.438 186.077C563.918 185.495 565.352 185.191 566.738 185.165C568.61 185.131 570.141 185.449 571.333 186.121C572.558 186.757 573.476 187.659 574.087 188.826C574.697 189.959 575.016 191.254 575.043 192.71C575.068 194.061 575.008 195.536 574.864 197.134C574.72 198.696 574.541 200.295 574.329 201.928C574.116 203.562 573.938 205.177 573.794 206.775C573.685 208.372 573.642 209.829 573.666 211.146C573.679 211.839 573.863 212.408 574.218 212.852C574.572 213.262 575.061 213.461 575.685 213.449C576.656 213.431 577.724 213.1 578.891 212.454C580.058 211.774 581.219 210.816 582.375 209.581L583.342 216.897ZM546.959 192.759C546.406 192.839 545.697 192.939 544.832 193.058C543.967 193.178 543.034 193.317 542.031 193.474C541.063 193.631 540.078 193.788 539.075 193.945C538.073 194.102 537.139 194.24 536.275 194.36L535.476 187.718C536.239 187.739 536.95 187.743 537.609 187.731C538.301 187.683 539.098 187.634 539.998 187.583C540.829 187.498 541.815 187.393 542.957 187.268C544.133 187.108 545.308 186.93 546.484 186.735C547.694 186.539 548.817 186.328 549.853 186.101C550.889 185.874 551.699 185.651 552.285 185.432L554.413 188.045C554.109 188.467 553.755 188.993 553.35 189.625C552.98 190.256 552.594 190.904 552.19 191.571C551.785 192.202 551.432 192.763 551.129 193.254L548.241 203.085C547.702 203.893 547.027 204.911 546.217 206.139C545.443 207.367 544.617 208.665 543.741 210.033C542.864 211.402 542.005 212.718 541.161 213.982C540.318 215.245 539.558 216.352 538.882 217.3L534.67 211.709C535.313 210.865 536.041 209.898 536.853 208.808C537.699 207.683 538.579 206.505 539.492 205.275C540.405 204.01 541.301 202.763 542.18 201.533C543.058 200.268 543.868 199.092 544.611 198.003C545.388 196.88 546.029 195.914 546.534 195.107L546.613 193.754L546.959 192.759ZM546.151 182.788C546.137 182.026 546.123 181.263 546.109 180.501C546.094 179.704 546.01 178.908 545.857 178.113L553.452 178.233C553.259 179.034 553.055 180.199 552.841 181.729C552.66 183.223 552.466 184.943 552.26 186.888C552.087 188.833 551.917 190.882 551.749 193.035C551.614 195.152 551.497 197.27 551.398 199.387C551.333 201.503 551.317 203.479 551.351 205.316C551.377 206.737 551.404 208.176 551.431 209.632C551.492 211.087 551.554 212.577 551.617 214.101C551.68 215.625 551.778 217.201 551.912 218.828C551.955 219.278 552.019 219.901 552.103 220.697C552.187 221.528 552.27 222.237 552.35 222.825L545.175 222.957C545.233 222.332 545.255 221.638 545.241 220.876C545.261 220.112 545.268 219.523 545.26 219.107C545.264 217.408 545.269 215.83 545.277 214.374C545.285 212.917 545.274 211.375 545.244 209.746C545.248 208.116 545.265 206.226 545.295 204.076C545.315 203.278 545.349 202.272 545.396 201.057C545.442 199.808 545.486 198.455 545.529 196.998C545.605 195.506 545.681 193.996 545.757 192.469C545.833 190.942 545.894 189.52 545.939 188.201C546.018 186.848 546.066 185.702 546.083 184.766C546.135 183.794 546.157 183.135 546.151 182.788Z" fill="white"/>
<path d="M608.234 181.921C608.176 182.321 608.118 182.773 608.059 183.279C608.027 183.759 607.994 184.252 607.962 184.758C607.929 185.291 607.894 186.011 607.858 186.917C607.821 187.797 607.797 188.77 607.785 189.837C607.773 190.903 607.761 191.956 607.749 192.996C607.737 194.036 607.727 194.983 607.717 195.836C607.705 196.956 607.717 198.21 607.755 199.597C607.793 200.957 607.844 202.345 607.908 203.759C607.999 205.147 608.064 206.454 608.104 207.681C608.17 208.882 608.199 209.883 608.19 210.683C608.177 211.802 607.873 212.826 607.275 213.752C606.679 214.652 605.791 215.362 604.611 215.883C603.459 216.403 602.002 216.653 600.243 216.633C597.043 216.597 594.623 215.983 592.983 214.792C591.343 213.6 590.535 211.95 590.558 209.844C590.574 208.484 590.974 207.302 591.758 206.297C592.57 205.266 593.712 204.466 595.186 203.896C596.685 203.326 598.462 203.052 600.515 203.076C602.702 203.1 604.739 203.363 606.627 203.864C608.541 204.339 610.281 204.959 611.846 205.723C613.411 206.488 614.802 207.29 616.019 208.131C617.237 208.971 618.268 209.729 619.114 210.406L616.184 214.853C615.234 213.935 614.164 213.03 612.974 212.136C611.811 211.243 610.526 210.429 609.121 209.693C607.743 208.957 606.269 208.367 604.701 207.923C603.159 207.452 601.522 207.207 599.789 207.188C598.402 207.172 597.32 207.4 596.541 207.871C595.789 208.343 595.409 208.925 595.401 209.618C595.395 210.125 595.551 210.567 595.866 210.944C596.182 211.321 596.646 211.606 597.257 211.799C597.868 211.993 598.64 212.095 599.573 212.106C600.293 212.114 600.908 212.041 601.416 211.886C601.951 211.732 602.368 211.444 602.666 211.02C602.964 210.597 603.117 209.999 603.126 209.225C603.133 208.639 603.116 207.799 603.074 206.705C603.06 205.611 603.034 204.411 602.995 203.104C602.957 201.77 602.918 200.463 602.879 199.182C602.84 197.901 602.826 196.768 602.837 195.781C602.848 194.821 602.86 193.821 602.871 192.781C602.91 191.715 602.935 190.662 602.947 189.622C602.959 188.582 602.969 187.636 602.979 186.782C603.015 185.903 603.037 185.183 603.043 184.623C603.047 184.25 603.026 183.796 602.978 183.262C602.958 182.702 602.91 182.235 602.834 181.86L608.234 181.921ZM591.593 185.494C592.311 185.609 593.11 185.724 593.989 185.841C594.868 185.958 595.76 186.074 596.665 186.191C597.597 186.282 598.477 186.358 599.303 186.421C600.129 186.457 600.849 186.478 601.462 186.485C604.182 186.516 606.889 186.466 609.584 186.337C612.306 186.181 615.123 185.879 618.035 185.432L617.943 190.031C616.581 190.202 615.006 190.358 613.218 190.498C611.429 190.638 609.521 190.75 607.493 190.833C605.493 190.891 603.479 190.908 601.453 190.885C600.626 190.876 599.6 190.838 598.374 190.771C597.175 190.677 595.976 190.57 594.777 190.45C593.579 190.303 592.54 190.172 591.661 190.055L591.593 185.494ZM591.295 194.131C591.934 194.245 592.693 194.36 593.572 194.477C594.45 194.593 595.343 194.684 596.249 194.747C597.181 194.811 598.061 194.874 598.887 194.937C599.713 194.973 600.393 194.994 600.926 195C603.406 195.028 605.646 195 607.648 194.915C609.675 194.832 611.57 194.72 613.332 194.579C615.093 194.439 616.789 194.272 618.418 194.077L618.325 198.796C616.936 198.94 615.588 199.058 614.28 199.15C612.999 199.243 611.678 199.321 610.317 199.386C608.983 199.451 607.543 199.488 605.996 199.497C604.449 199.506 602.716 199.5 600.796 199.479C600.022 199.47 599.063 199.446 597.916 199.406C596.77 199.34 595.598 199.26 594.399 199.166C593.226 199.073 592.188 198.968 591.282 198.851L591.295 194.131Z" fill="white"/>
<path d="M639.481 182.811C639.346 183.633 639.209 184.523 639.071 185.478C638.958 186.435 638.862 187.312 638.782 188.11C638.718 189.202 638.62 190.533 638.487 192.103C638.382 193.647 638.274 195.271 638.163 196.974C638.079 198.679 637.983 200.357 637.874 202.008C637.791 203.659 637.73 205.098 637.688 206.324C637.644 207.656 637.847 208.73 638.3 209.546C638.781 210.336 639.428 210.918 640.243 211.293C641.058 211.64 641.985 211.831 643.025 211.866C644.677 211.922 646.19 211.76 647.564 211.379C648.938 210.972 650.198 210.414 651.342 209.705C652.487 208.997 653.515 208.164 654.428 207.207C655.367 206.252 656.215 205.24 656.972 204.171L660.462 208.691C659.79 209.629 658.916 210.614 657.841 211.645C656.765 212.676 655.493 213.634 654.022 214.518C652.578 215.403 650.913 216.108 649.028 216.631C647.143 217.155 645.067 217.378 642.802 217.302C640.616 217.228 638.723 216.818 637.12 216.07C635.543 215.35 634.326 214.268 633.467 212.825C632.636 211.357 632.259 209.49 632.335 207.224C632.372 206.131 632.427 204.893 632.5 203.508C632.574 202.096 632.664 200.631 632.768 199.114C632.873 197.597 632.962 196.119 633.038 194.681C633.114 193.216 633.185 191.897 633.251 190.726C633.317 189.554 633.362 188.621 633.385 187.929C633.417 186.969 633.409 186.035 633.359 185.126C633.311 184.191 633.207 183.32 633.047 182.514L639.481 182.811Z" fill="white"/>
<path d="M681.044 183.989C680.857 184.513 680.665 185.158 680.466 185.922C680.268 186.687 680.118 187.28 680.016 187.702C679.784 188.598 679.489 189.691 679.13 190.982C678.798 192.273 678.423 193.643 678.003 195.09C677.609 196.539 677.206 197.92 676.793 199.235C676.376 200.629 675.873 202.139 675.284 203.765C674.696 205.364 674.066 207.001 673.395 208.676C672.751 210.326 672.097 211.908 671.434 213.423C670.771 214.912 670.131 216.241 669.511 217.412L664.052 215.255C664.689 214.272 665.377 213.079 666.115 211.674C666.854 210.243 667.572 208.704 668.269 207.056C668.993 205.411 669.663 203.776 670.278 202.151C670.894 200.527 671.424 199.018 671.868 197.625C672.181 196.706 672.482 195.76 672.771 194.787C673.061 193.814 673.322 192.866 673.555 191.943C673.788 191.02 673.992 190.162 674.165 189.37C674.366 188.553 674.522 187.84 674.633 187.231C674.75 186.489 674.841 185.746 674.905 185.002C674.969 184.257 674.986 183.658 674.956 183.202L681.044 183.989ZM670.558 189.429C672.182 189.511 673.877 189.516 675.643 189.445C677.409 189.373 679.191 189.236 680.991 189.033C682.79 188.829 684.578 188.572 686.356 188.261L686.105 193.255C684.435 193.545 682.661 193.776 680.783 193.948C678.906 194.121 677.057 194.242 675.238 194.31C673.421 194.352 671.753 194.335 670.235 194.259C669.276 194.211 668.411 194.154 667.64 194.088C666.87 193.996 666.126 193.919 665.409 193.856L665.54 188.856C666.573 189.015 667.461 189.14 668.205 189.231C668.948 189.321 669.732 189.388 670.558 189.429ZM682.794 196.172C683.918 196.122 685.161 196.091 686.524 196.079C687.886 196.068 689.206 196.094 690.485 196.158C691.63 196.216 692.787 196.301 693.956 196.413C695.152 196.527 696.333 196.679 697.498 196.871L697.137 201.659C696.158 201.477 695.072 201.315 693.877 201.175C692.711 201.01 691.515 200.896 690.29 200.834C688.931 200.766 687.611 200.74 686.329 200.755C685.074 200.746 683.817 200.789 682.557 200.886L682.794 196.172ZM684.445 206.348C684.257 206.899 684.095 207.478 683.958 208.086C683.822 208.666 683.742 209.183 683.719 209.636C683.698 210.062 683.771 210.466 683.939 210.848C684.106 211.23 684.383 211.578 684.767 211.891C685.154 212.177 685.689 212.418 686.373 212.613C687.084 212.809 687.972 212.933 689.038 212.987C690.396 213.055 691.758 213.057 693.123 212.992C694.516 212.902 695.938 212.76 697.389 212.566L696.933 217.669C695.807 217.746 694.563 217.804 693.199 217.842C691.834 217.907 690.353 217.899 688.755 217.819C685.399 217.65 682.856 216.975 681.127 215.793C679.425 214.586 678.625 212.971 678.727 210.947C678.773 210.041 678.899 209.126 679.106 208.202C679.312 207.278 679.516 206.42 679.716 205.629L684.445 206.348Z" fill="white"/>
<path d="M715.074 208.627L710.403 208.33C710.496 207.494 710.562 207.098 710.592 206.619C710.62 206.18 710.62 206.18 710.652 203.777L710.956 190.169C710.988 188.407 710.995 186.404 710.906 185.276L717.453 185.692C717.265 186.762 716.973 188.828 716.784 190.539L715.363 204.076C715.136 206.386 715.136 206.386 715.1 206.945C715.07 207.424 715.045 207.824 715.074 208.627ZM715.077 217.405L709.289 217.037L709.636 211.568L715.425 211.936L715.077 217.405Z" fill="white"/>
<g filter="url(#filter0_d_5004_180)">
<path fill-rule="evenodd" clip-rule="evenodd" d="M151.21 113.588C152.442 112.596 153.521 111.618 154.448 110.654C155.064 111.879 155.849 113.155 156.801 114.482C157.754 115.808 158.807 117.138 159.96 118.47C160.796 119.416 161.669 120.341 162.577 121.245L143.822 118.374C144.989 117.764 146.113 117.12 147.193 116.441C148.642 115.507 149.981 114.556 151.21 113.588ZM142.294 119.143C140.82 119.866 139.315 120.507 137.779 121.067C137.588 120.511 137.262 119.845 136.803 119.071C136.372 118.277 135.944 117.621 135.521 117.104C137.826 116.326 140.063 115.337 142.231 114.136C144.404 112.911 146.391 111.582 148.193 110.149C149.995 108.716 151.465 107.321 152.603 105.962L157.206 106.667C157.974 108.216 158.872 109.736 159.9 111.225C160.929 112.714 162.031 114.126 163.209 115.462C164.415 116.777 165.672 118 166.982 119.13C168.319 120.239 169.676 121.226 171.051 122.089C170.4 122.568 169.776 123.113 169.18 123.725C168.584 124.337 168.025 124.955 167.502 125.579C166.31 124.647 165.109 123.626 163.9 122.517L163.463 125.375L154.809 124.051L154.155 128.322L164.503 129.906L163.917 133.736L153.569 132.152L152.887 136.608L166.549 138.699L165.946 142.639L134.461 137.821L135.064 133.88L148.247 135.898L148.929 131.442L138.729 129.881L139.315 126.051L149.515 127.612L150.169 123.341L141.847 122.067L142.294 119.143ZM198.71 121.696L180.551 118.71L179.922 122.533L186.943 123.687L186.369 127.18L180.34 126.188L179.73 129.901L185.758 130.892L185.039 135.267L177.65 134.052L177.058 137.654L196.21 140.804L196.802 137.201L194.209 136.775L196.279 136.02C196.07 135.457 195.725 134.797 195.246 134.038C194.848 133.382 194.457 132.79 194.073 132.26L196.088 132.591L196.699 128.878L190.449 127.851L191.024 124.358L198.081 125.519L198.71 121.696ZM189.839 131.563L189.12 135.938L192.797 136.543C192.608 136.125 192.369 135.658 192.082 135.141C191.66 134.342 191.24 133.606 190.822 132.933L193.307 132.134L189.839 131.563ZM206.281 116.749L175.219 111.642L169.791 144.652L174.276 145.39L174.572 143.588L196.444 147.185L196.148 148.986L200.853 149.76L206.281 116.749ZM197.115 143.104L200.911 120.019L179.039 116.423L175.243 139.508L197.115 143.104ZM210.047 123.352C210.792 123.388 211.5 123.421 212.17 123.45C212.842 123.455 213.353 123.459 213.701 123.463C214.473 123.476 215.42 123.478 216.541 123.47C217.69 123.439 218.963 123.418 220.359 123.408C221.78 123.399 223.288 123.397 224.882 123.402C226.476 123.408 228.134 123.406 229.854 123.397C231.151 123.378 232.434 123.383 233.702 123.411C234.998 123.417 236.217 123.442 237.359 123.485C238.529 123.506 239.548 123.539 240.416 123.585L240.066 128.34C239.398 128.286 238.629 128.236 237.761 128.19C236.892 128.144 236.022 128.123 235.15 128.127C234.304 128.107 233.54 128.157 232.857 128.276C231.719 128.482 230.638 128.905 229.614 129.544C228.592 130.159 227.683 130.919 226.887 131.826C226.117 132.71 225.489 133.693 225.002 134.775C224.517 135.832 224.229 136.917 224.138 138.031C224.039 139.244 224.162 140.338 224.506 141.313C224.877 142.265 225.407 143.106 226.095 143.835C226.81 144.541 227.656 145.158 228.635 145.686C229.616 146.19 230.679 146.6 231.824 146.918C232.994 147.238 234.207 147.486 235.463 147.663L233.304 152.608C231.752 152.382 230.25 152.01 228.797 151.493C227.369 150.978 226.04 150.321 224.809 149.523C223.578 148.725 222.52 147.792 221.636 146.723C220.778 145.631 220.117 144.419 219.652 143.085C219.215 141.729 219.061 140.246 219.192 138.637C219.338 136.855 219.756 135.244 220.446 133.806C221.138 132.342 221.951 131.087 222.883 130.042C223.842 128.974 224.768 128.165 225.66 127.615C224.959 127.657 224.109 127.688 223.111 127.706C222.138 127.726 221.075 127.764 219.925 127.82C218.801 127.853 217.651 127.896 216.475 127.95C215.3 128.004 214.159 128.085 213.054 128.194C211.976 128.281 210.996 128.376 210.116 128.478L210.047 123.352ZM234.46 131.546C234.745 132.018 235.036 132.578 235.332 133.225C235.655 133.849 235.964 134.485 236.261 135.132C236.559 135.754 236.811 136.323 237.019 136.838L234.094 137.871C233.708 136.793 233.325 135.84 232.944 135.011C232.588 134.185 232.146 133.339 231.618 132.473L234.46 131.546ZM238.758 130.177C239.043 130.649 239.347 131.197 239.67 131.822C240.02 132.423 240.355 133.049 240.676 133.698C240.999 134.322 241.265 134.879 241.474 135.37L238.58 136.48C238.166 135.449 237.755 134.531 237.347 133.725C236.964 132.922 236.496 132.086 235.944 131.219L238.758 130.177ZM262.634 125.335C262.807 124.62 262.976 124.016 263.141 123.525L257.459 122.889C257.495 123.313 257.489 123.872 257.441 124.566C257.393 125.26 257.32 125.953 257.223 126.646C257.129 127.214 256.995 127.881 256.821 128.646L256.799 128.755C255.654 128.793 254.542 128.794 253.463 128.758C252.693 128.732 251.962 128.683 251.268 128.61C250.575 128.538 249.746 128.436 248.781 128.304L248.738 132.962C249.408 133.009 250.102 133.069 250.82 133.143C251.539 133.192 252.345 133.231 253.239 133.261C254.025 133.287 254.855 133.295 255.727 133.285C255.688 133.427 255.649 133.569 255.609 133.712C255.355 134.623 255.09 135.509 254.813 136.369C254.422 137.673 253.952 139.087 253.405 140.609C252.857 142.132 252.26 143.665 251.612 145.209C250.99 146.754 250.345 148.198 249.679 149.543C249.014 150.863 248.393 151.985 247.816 152.911L252.933 154.832C253.492 153.732 254.067 152.484 254.66 151.087C255.254 149.666 255.838 148.182 256.411 146.635C257.009 145.065 257.57 143.53 258.092 142.032C258.614 140.508 259.059 139.094 259.425 137.79C259.789 136.559 260.142 135.266 260.486 133.911C260.566 133.614 260.645 133.32 260.722 133.031C261.495 132.965 262.273 132.889 263.057 132.803C264.803 132.613 266.451 132.369 268.001 132.073L268.156 127.419C266.505 127.737 264.844 128.005 263.172 128.222C262.748 128.278 262.325 128.329 261.903 128.376C262.03 127.872 262.143 127.413 262.243 126.999C262.331 126.604 262.461 126.049 262.634 125.335ZM268.436 134.696C267.168 134.729 266.011 134.778 264.965 134.842L264.819 139.236C265.991 139.126 267.161 139.065 268.329 139.054C269.523 139.019 270.753 139.023 272.019 139.065C273.161 139.102 274.276 139.189 275.365 139.325C276.479 139.436 277.494 139.569 278.408 139.724L278.668 135.259C277.58 135.099 276.478 134.976 275.363 134.889C274.272 134.803 273.193 134.742 272.126 134.707C270.935 134.667 269.705 134.664 268.436 134.696ZM266.238 145.918C266.356 145.35 266.498 144.808 266.664 144.292L262.248 143.698C262.075 144.438 261.899 145.239 261.721 146.103C261.544 146.967 261.441 147.821 261.413 148.665C261.35 150.551 262.121 152.043 263.724 153.14C265.354 154.213 267.732 154.801 270.86 154.905C272.349 154.954 273.729 154.938 274.999 154.856C276.268 154.799 277.426 154.725 278.473 154.636L278.817 149.876C277.468 150.08 276.146 150.235 274.85 150.341C273.58 150.423 272.312 150.443 271.046 150.401C270.053 150.368 269.224 150.266 268.559 150.095C267.919 149.924 267.416 149.709 267.052 149.448C266.689 149.163 266.426 148.844 266.264 148.49C266.102 148.137 266.027 147.762 266.04 147.365C266.054 146.943 266.12 146.46 266.238 145.918ZM290.006 138.705C290.578 138.584 291.237 138.438 291.983 138.269C292.729 138.074 293.389 137.892 293.961 137.721C294.583 137.526 295.416 137.269 296.461 136.952C297.506 136.635 298.65 136.319 299.894 136.003C301.162 135.687 302.43 135.421 303.698 135.204C304.991 134.988 306.208 134.883 307.351 134.89C309.313 134.9 311.024 135.282 312.485 136.036C313.972 136.764 315.121 137.814 315.933 139.184C316.745 140.555 317.145 142.184 317.135 144.071C317.125 145.76 316.744 147.298 315.992 148.684C315.264 150.071 314.152 151.282 312.656 152.317C311.16 153.352 309.292 154.186 307.054 154.819C304.84 155.477 302.254 155.885 299.298 156.042L297.349 151.449C299.485 151.412 301.448 151.236 303.238 150.923C305.053 150.61 306.62 150.16 307.94 149.571C309.284 148.958 310.319 148.181 311.045 147.241C311.795 146.302 312.174 145.211 312.181 143.969C312.186 143.025 311.967 142.205 311.524 141.507C311.105 140.784 310.5 140.222 309.708 139.82C308.915 139.418 307.972 139.214 306.88 139.208C306.01 139.204 305.041 139.31 303.972 139.528C302.903 139.745 301.796 140.025 300.652 140.366C299.532 140.707 298.425 141.074 297.33 141.465C296.235 141.856 295.215 142.236 294.269 142.603C293.323 142.97 292.539 143.289 291.916 143.558L290.006 138.705ZM340.413 127.405C340.526 126.678 340.644 126.063 340.768 125.56L335.053 125.398C335.124 125.817 335.164 126.375 335.174 127.07C335.184 127.766 335.169 128.463 335.129 129.161C335.083 129.736 335.005 130.411 334.895 131.187L334.882 131.298C333.744 131.431 332.636 131.524 331.557 131.578C330.789 131.616 330.056 131.628 329.359 131.613C328.662 131.598 327.827 131.566 326.854 131.515L327.199 136.16C327.87 136.151 328.566 136.154 329.288 136.168C330.008 136.156 330.815 136.128 331.708 136.084C332.494 136.045 333.321 135.984 334.19 135.902C334.163 136.046 334.136 136.191 334.108 136.337C333.931 137.266 333.74 138.171 333.535 139.051C333.254 140.383 332.903 141.83 332.484 143.393C332.065 144.956 331.597 146.533 331.079 148.126C330.587 149.717 330.065 151.21 329.513 152.606C328.96 153.976 328.434 155.146 327.935 156.116L333.195 157.606C333.66 156.464 334.13 155.172 334.605 153.731C335.079 152.265 335.537 150.738 335.98 149.149C336.446 147.534 336.877 145.959 337.273 144.422C337.667 142.86 337.993 141.414 338.249 140.084C338.51 138.827 338.755 137.509 338.984 136.13C339.04 135.828 339.094 135.529 339.146 135.233C339.911 135.104 340.681 134.963 341.455 134.813C343.179 134.478 344.801 134.099 346.321 133.675L346.089 129.024C344.47 129.478 342.837 129.883 341.189 130.239C340.771 130.329 340.354 130.415 339.937 130.497C340.022 129.984 340.097 129.517 340.162 129.096C340.216 128.696 340.3 128.132 340.413 127.405ZM346.972 136.253C345.711 136.391 344.562 136.535 343.525 136.687L343.745 141.077C344.903 140.87 346.064 140.712 347.227 140.604C348.414 140.47 349.64 140.372 350.905 140.309C352.046 140.252 353.165 140.245 354.261 140.29C355.381 140.309 356.403 140.357 357.327 140.435L357.216 135.965C356.118 135.895 355.01 135.864 353.891 135.87C352.797 135.875 351.717 135.904 350.65 135.957C349.46 136.017 348.234 136.115 346.972 136.253ZM345.713 147.618C345.784 147.043 345.88 146.491 346.003 145.962L341.553 145.737C341.442 146.489 341.333 147.302 341.228 148.178C341.122 149.054 341.091 149.913 341.133 150.756C341.227 152.642 342.119 154.064 343.808 155.024C345.521 155.958 347.94 156.347 351.065 156.191C352.554 156.116 353.927 155.985 355.186 155.798C356.446 155.636 357.594 155.466 358.63 155.29L358.577 150.518C357.25 150.833 355.946 151.097 354.663 151.311C353.404 151.498 352.142 151.623 350.877 151.687C349.885 151.736 349.051 151.703 348.373 151.588C347.721 151.471 347.203 151.298 346.818 151.069C346.432 150.815 346.144 150.518 345.953 150.18C345.762 149.841 345.657 149.473 345.637 149.077C345.616 148.655 345.641 148.169 345.713 147.618ZM391.908 139.214L392.028 146.089C392.08 149.072 391.807 151.651 391.208 153.827C390.609 155.984 389.721 157.764 388.545 159.167C387.387 160.552 385.995 161.586 384.369 162.269C382.744 162.953 380.931 163.312 378.93 163.347C377.33 163.375 375.835 163.201 374.446 162.825C373.056 162.43 371.799 161.806 370.674 160.953C369.568 160.099 368.603 159.015 367.78 157.701C366.974 156.369 366.346 154.779 365.895 152.931C365.444 151.083 365.198 148.959 365.156 146.558L365.036 139.683C364.984 136.701 365.258 134.14 365.857 132.001C366.475 129.843 367.362 128.072 368.521 126.687C369.697 125.302 371.099 124.277 372.724 123.612C374.35 122.929 376.163 122.57 378.163 122.535C379.764 122.507 381.25 122.69 382.621 123.085C384.01 123.461 385.267 124.066 386.392 124.902C387.516 125.737 388.481 126.821 389.286 128.153C390.092 129.467 390.72 131.048 391.17 132.896C391.621 134.726 391.867 136.832 391.908 139.214ZM384.162 147.264L384.005 138.288C383.98 136.851 383.877 135.598 383.694 134.528C383.53 133.457 383.287 132.552 382.965 131.811C382.642 131.053 382.249 130.441 381.786 129.976C381.323 129.511 380.799 129.175 380.213 128.967C379.627 128.759 378.98 128.661 378.271 128.673C377.379 128.689 376.591 128.875 375.906 129.233C375.239 129.59 374.676 130.155 374.216 130.927C373.757 131.681 373.41 132.688 373.178 133.947C372.963 135.188 372.871 136.699 372.902 138.482L373.059 147.457C373.084 148.894 373.179 150.157 373.343 151.246C373.526 152.334 373.779 153.267 374.101 154.043C374.442 154.801 374.835 155.422 375.28 155.906C375.743 156.371 376.267 156.707 376.853 156.915C377.457 157.123 378.114 157.221 378.823 157.208C379.696 157.193 380.466 157.007 381.133 156.649C381.818 156.274 382.39 155.7 382.85 154.928C383.327 154.137 383.673 153.112 383.887 151.853C384.102 150.594 384.194 149.064 384.162 147.264ZM395.572 155.369C394.815 156.194 394.468 157.187 394.531 158.35C394.594 159.512 395.047 160.462 395.888 161.2C396.748 161.937 397.85 162.269 399.194 162.196C400.538 162.123 401.588 161.674 402.345 160.85C403.12 160.024 403.476 159.03 403.413 157.868C403.35 156.706 402.889 155.756 402.029 155.019C401.187 154.282 400.095 153.949 398.751 154.022C397.406 154.095 396.347 154.544 395.572 155.369ZM436.211 119.535L436.657 125.572C435.111 127.309 433.76 129.554 431.799 133.467C426.964 143.086 424.795 151.253 424.203 162.338L415.98 162.946C417.054 154.128 418.246 149.017 420.787 142.34C422.8 137.011 424.672 133.314 428.774 126.522L412.693 127.712C409.622 127.939 408.017 128.162 405.902 128.58L405.394 121.711C407.807 121.794 409.48 121.775 412.551 121.547L429.1 120.323C433.003 120.034 434.353 119.882 436.211 119.535ZM446.591 147.655C447.636 148.309 448.817 148.61 450.132 148.558C451.472 148.504 452.624 148.11 453.589 147.376C454.579 146.641 455.333 145.604 455.852 144.266C456.369 142.903 456.591 141.304 456.518 139.467C456.407 136.688 455.689 134.566 454.363 133.103C453.062 131.639 451.418 130.946 449.433 131.025C448.118 131.078 446.965 131.472 445.976 132.207C444.985 132.917 444.23 133.942 443.712 135.28C443.193 136.593 442.97 138.168 443.043 140.004C443.116 141.841 443.465 143.417 444.089 144.735C444.712 146.027 445.546 147.001 446.591 147.655ZM452.003 144.047C451.491 144.937 450.826 145.398 450.007 145.431C449.213 145.463 448.513 145.056 447.908 144.21C447.326 143.338 446.995 141.885 446.914 139.85C446.833 137.815 447.049 136.365 447.561 135.499C448.097 134.608 448.762 134.146 449.556 134.115C450.375 134.082 451.075 134.489 451.656 135.336C452.26 136.157 452.603 137.585 452.684 139.62C452.765 141.655 452.538 143.13 452.003 144.047ZM467.173 157.982C468.218 158.637 469.398 158.938 470.714 158.885C472.029 158.833 473.181 158.439 474.171 157.704C475.161 156.968 475.915 155.931 476.433 154.593C476.952 153.255 477.174 151.668 477.101 149.832C477.027 147.971 476.679 146.406 476.057 145.139C475.433 143.846 474.6 142.885 473.556 142.256C472.51 141.601 471.33 141.3 470.015 141.353C468.7 141.405 467.547 141.799 466.557 142.534C465.567 143.245 464.8 144.27 464.257 145.609C463.737 146.922 463.515 148.509 463.589 150.37C463.662 152.207 464.01 153.771 464.633 155.064C465.281 156.355 466.128 157.328 467.173 157.982ZM472.584 154.374C472.074 155.289 471.409 155.763 470.591 155.796C469.772 155.828 469.059 155.409 468.453 154.539C467.871 153.667 467.54 152.226 467.46 150.216C467.378 148.156 467.593 146.694 468.105 145.828C468.643 144.962 469.321 144.512 470.14 144.48C470.959 144.447 471.658 144.842 472.237 145.664C472.817 146.486 473.148 147.926 473.23 149.986C473.31 151.996 473.095 153.459 472.584 154.374ZM465.402 130.389L451.506 159.651L454.745 159.522L468.678 130.258L465.402 130.389Z" fill="white"/>
</g>
<g filter="url(#filter1_d_5004_180)">
<path d="M495.353 157.09C494.032 155.36 492.95 153.526 492.106 151.586C491.278 149.645 490.741 147.489 490.496 145.117C490.25 142.73 490.333 140.502 490.747 138.432C491.176 136.361 491.86 134.344 492.8 132.381L495.068 133.088C494.247 134.942 493.698 136.873 493.423 138.879C493.164 140.885 493.135 142.866 493.337 144.824C493.54 146.781 493.973 148.715 494.636 150.625C495.316 152.533 496.247 154.303 497.429 155.934L495.353 157.09Z" fill="white"/>
</g>
<g filter="url(#filter2_d_5004_180)">
<path d="M500.244 151.71L500.028 149.681C501.482 148.078 502.708 146.603 503.707 145.258C504.722 143.91 505.475 142.679 505.968 141.565C506.459 140.434 506.656 139.416 506.559 138.509C506.498 137.936 506.341 137.446 506.088 137.038C505.836 136.631 505.498 136.337 505.077 136.157C504.67 135.959 504.18 135.891 503.607 135.952C502.97 136.02 502.401 136.265 501.899 136.689C501.412 137.095 500.972 137.569 500.579 138.109L498.421 136.433C499.153 135.454 499.925 134.695 500.736 134.158C501.562 133.603 502.572 133.262 503.765 133.135C504.878 133.016 505.874 133.143 506.75 133.516C507.641 133.872 508.36 134.431 508.908 135.193C509.456 135.955 509.789 136.885 509.906 137.983C510.02 139.049 509.866 140.167 509.444 141.339C509.036 142.492 508.445 143.666 507.671 144.859C506.897 146.052 506.026 147.239 505.058 148.42C505.513 148.307 506.001 148.207 506.523 148.119C507.058 148.014 507.533 147.939 507.947 147.895L511.765 147.487L512.081 150.446L500.244 151.71Z" fill="white"/>
</g>
<g filter="url(#filter3_d_5004_180)">
<path d="M520.663 149.845C519.47 149.977 518.382 149.75 517.401 149.166C516.433 148.565 515.619 147.608 514.96 146.296C514.314 144.967 513.879 143.284 513.655 141.249C513.432 139.229 513.494 137.524 513.84 136.134C514.2 134.726 514.788 133.639 515.605 132.873C516.438 132.105 517.451 131.655 518.644 131.524C519.853 131.391 520.94 131.617 521.906 132.203C522.87 132.773 523.672 133.698 524.313 134.98C524.969 136.26 525.408 137.91 525.631 139.929C525.855 141.965 525.789 143.703 525.432 145.142C525.09 146.565 524.512 147.675 523.698 148.472C522.883 149.254 521.871 149.712 520.663 149.845ZM520.36 147.102C520.885 147.044 521.324 146.794 521.678 146.353C522.032 145.911 522.269 145.209 522.388 144.247C522.505 143.268 522.473 141.951 522.291 140.297C522.11 138.659 521.858 137.391 521.534 136.493C521.208 135.58 520.826 134.962 520.388 134.64C519.948 134.302 519.466 134.162 518.941 134.22C518.448 134.274 518.016 134.515 517.644 134.942C517.287 135.352 517.041 136.039 516.906 137.003C516.769 137.952 516.79 139.245 516.971 140.883C517.153 142.537 517.416 143.828 517.76 144.756C518.102 145.668 518.493 146.301 518.935 146.655C519.392 147.007 519.867 147.156 520.36 147.102Z" fill="white"/>
</g>
<g filter="url(#filter4_d_5004_180)">
<path d="M529.304 148.553L529.075 146.525C530.518 144.913 531.735 143.431 532.726 142.079C533.732 140.725 534.478 139.489 534.963 138.372C535.447 137.238 535.637 136.218 535.534 135.312C535.47 134.739 535.31 134.25 535.054 133.845C534.799 133.439 534.46 133.147 534.038 132.969C533.629 132.774 533.139 132.709 532.566 132.774C531.93 132.846 531.363 133.095 530.864 133.522C530.378 133.931 529.941 134.407 529.552 134.95L527.383 133.288C528.109 132.304 528.876 131.541 529.684 130.998C530.506 130.438 531.514 130.091 532.706 129.956C533.819 129.83 534.815 129.951 535.694 130.318C536.587 130.668 537.31 131.222 537.863 131.981C538.415 132.74 538.754 133.667 538.878 134.764C538.999 135.83 538.852 136.949 538.437 138.123C538.037 139.28 537.453 140.457 536.687 141.654C535.921 142.852 535.058 144.045 534.097 145.232C534.551 145.117 535.038 145.013 535.559 144.922C536.095 144.813 536.569 144.735 536.982 144.689L540.798 144.257L541.132 147.214L529.304 148.553Z" fill="white"/>
</g>
<g filter="url(#filter5_d_5004_180)">
<path d="M544.764 143.154L547.633 142.152C547.906 142.747 548.091 143.005 548.435 143.308C549.127 143.957 550.072 144.204 551.204 144.058C553.32 143.784 554.527 142.193 554.253 140.078C553.981 137.983 552.482 136.808 550.452 137.071C549.405 137.207 548.508 137.671 547.929 138.398C547.669 138.736 547.544 138.947 547.412 139.442L544.708 139.532C544.725 137.987 544.733 137.877 544.698 137.273L544.503 131.909C544.474 131.522 544.423 130.79 544.306 129.719C544.953 129.678 545.447 129.636 546.58 129.489L551.837 128.808C553.312 128.617 553.843 128.527 554.786 128.253L555.134 130.945C554.177 130.939 553.338 131.004 552.163 131.156L547.141 131.807L547.283 135.591C547.284 135.765 547.28 136.07 547.271 136.505C548.202 135.472 549.282 134.919 550.757 134.728C552.488 134.504 553.943 134.837 555.132 135.792C556.312 136.682 556.948 137.903 557.17 139.613C557.657 143.374 555.501 146.022 551.526 146.537C549.41 146.811 547.751 146.417 546.412 145.309C545.755 144.764 545.389 144.289 544.764 143.154Z" fill="white"/>
</g>
<g filter="url(#filter6_d_5004_180)">
<path d="M564.254 125.845L567.238 126.475C566.862 127.678 566.405 128.86 565.866 130.022C565.344 131.184 564.762 132.268 564.12 133.275C563.494 134.266 562.838 135.137 562.152 135.89C561.953 135.739 561.696 135.551 561.381 135.325C561.065 135.084 560.742 134.859 560.412 134.65C560.098 134.44 559.818 134.269 559.571 134.137C560.277 133.479 560.93 132.712 561.53 131.835C562.129 130.942 562.661 129.988 563.126 128.973C563.591 127.942 563.967 126.9 564.254 125.845ZM564.909 128.554L580.156 127.842L580.286 130.623L563.648 131.399L564.909 128.554ZM563.472 134.315L579.846 133.55L579.971 136.235L566.474 136.866L566.709 141.9L563.832 142.034L563.472 134.315ZM559.954 140.798L582.01 139.768L582.139 142.525L560.083 143.555L559.954 140.798ZM570.322 129.742L573.295 129.604L574.157 148.063L571.184 148.202L570.322 129.742Z" fill="white"/>
</g>
<g filter="url(#filter7_d_5004_180)">
<path d="M591.223 146.08C590.296 146.046 589.468 145.904 588.741 145.653C588.013 145.418 587.368 145.106 586.806 144.717C586.261 144.313 585.789 143.871 585.39 143.392L587.127 141.223C587.652 141.738 588.228 142.192 588.854 142.583C589.497 142.959 590.218 143.162 591.017 143.191C591.625 143.213 592.156 143.137 592.611 142.961C593.081 142.787 593.443 142.52 593.697 142.161C593.966 141.802 594.111 141.359 594.13 140.832C594.152 140.24 594.026 139.731 593.754 139.305C593.498 138.863 593.022 138.517 592.327 138.268C591.632 138.018 590.644 137.87 589.365 137.823L589.459 135.28C590.546 135.32 591.406 135.24 592.037 135.039C592.67 134.822 593.121 134.518 593.392 134.128C593.679 133.722 593.832 133.256 593.852 132.728C593.877 132.04 593.689 131.497 593.287 131.098C592.886 130.683 592.31 130.462 591.558 130.434C590.935 130.411 590.346 130.534 589.792 130.801C589.254 131.054 588.713 131.41 588.167 131.871L586.425 129.621C587.232 128.994 588.075 128.505 588.952 128.153C589.831 127.785 590.789 127.62 591.829 127.658C592.964 127.7 593.956 127.921 594.806 128.32C595.672 128.72 596.332 129.281 596.786 130.002C597.24 130.723 597.448 131.587 597.411 132.595C597.376 133.554 597.09 134.368 596.553 135.037C596.016 135.706 595.269 136.206 594.312 136.54L594.307 136.659C594.957 136.859 595.538 137.169 596.05 137.588C596.58 137.992 596.986 138.495 597.268 139.098C597.566 139.701 597.7 140.395 597.672 141.178C597.632 142.249 597.311 143.158 596.707 143.905C596.119 144.651 595.338 145.215 594.363 145.596C593.405 145.961 592.358 146.122 591.223 146.08Z" fill="white"/>
</g>
<g filter="url(#filter8_d_5004_180)">
<path d="M606.531 125.352L618.506 125.288L618.521 128.096L606.546 128.159L606.531 125.352ZM606.585 131.087L618.657 131.023L618.671 133.759L606.6 133.823L606.585 131.087ZM606.471 136.752L618.519 136.688L618.534 139.496L606.486 139.56L606.471 136.752ZM604.539 125.362L607.515 125.346L607.557 133.29C607.562 134.33 607.504 135.45 607.383 136.651C607.277 137.852 607.067 139.069 606.754 140.303C606.441 141.536 605.975 142.707 605.357 143.814C604.738 144.921 603.92 145.91 602.9 146.779C602.755 146.572 602.546 146.333 602.273 146.062C602.015 145.792 601.734 145.529 601.428 145.275C601.139 145.02 600.882 144.83 600.657 144.703C601.565 143.93 602.281 143.078 602.804 142.148C603.343 141.201 603.738 140.223 603.988 139.213C604.255 138.204 604.417 137.195 604.476 136.187C604.551 135.178 604.586 134.21 604.581 133.282L604.539 125.362ZM617.162 125.295L620.234 125.279L620.329 143.014C620.333 143.878 620.217 144.543 619.979 145.008C619.758 145.474 619.368 145.828 618.809 146.071C618.234 146.33 617.515 146.485 616.651 146.538C615.788 146.607 614.732 146.644 613.484 146.651C613.418 146.363 613.321 146.036 613.191 145.668C613.061 145.301 612.915 144.934 612.753 144.567C612.591 144.2 612.429 143.888 612.268 143.633C612.828 143.662 613.396 143.683 613.972 143.696C614.564 143.693 615.084 143.69 615.532 143.688C615.996 143.686 616.324 143.684 616.516 143.683C616.788 143.681 616.98 143.632 617.091 143.536C617.203 143.423 617.258 143.239 617.256 142.983L617.162 125.295Z" fill="white"/>
</g>
<g filter="url(#filter9_d_5004_180)">
<path d="M635.127 127.021L647.408 127.442L647.322 129.936L635.042 129.516L635.127 127.021ZM634.178 131.599L647.946 132.071L647.859 134.59L634.091 134.118L634.178 131.599ZM634.069 136.158L647.622 136.623L647.535 139.141L633.983 138.677L634.069 136.158ZM639.845 124.589L642.699 124.687L642.397 133.514L639.543 133.416L639.845 124.589ZM642.562 134.288L645.393 134.385L645.053 144.315C645.029 145.003 644.923 145.535 644.734 145.913C644.544 146.307 644.214 146.608 643.742 146.816C643.271 147.008 642.699 147.116 642.026 147.141C641.368 147.183 640.592 147.188 639.696 147.157C639.646 146.755 639.542 146.288 639.384 145.754C639.226 145.236 639.057 144.79 638.877 144.416C639.469 144.452 640.044 144.488 640.603 144.523C641.162 144.542 641.538 144.555 641.73 144.561C641.906 144.567 642.027 144.548 642.092 144.502C642.175 144.441 642.219 144.322 642.225 144.146L642.562 134.288ZM634.887 140.341L637.211 139.099C637.582 139.48 637.951 139.909 638.319 140.386C638.687 140.863 639.023 141.339 639.327 141.814C639.631 142.288 639.864 142.72 640.027 143.11L637.482 144.488C637.367 144.1 637.166 143.669 636.878 143.194C636.591 142.704 636.271 142.213 635.92 141.721C635.585 141.213 635.241 140.753 634.887 140.341ZM627.776 125.688L633.941 125.9L633.378 142.306L627.214 142.095L627.302 139.528L630.804 139.648L631.19 128.375L627.688 128.255L627.776 125.688ZM627.687 132.505L632.34 132.665L632.254 135.183L627.601 135.024L627.687 132.505ZM626.409 125.642L629.072 125.733L628.436 144.274L625.774 144.183L626.409 125.642Z" fill="white"/>
</g>
<g filter="url(#filter10_d_5004_180)">
<path d="M661.193 123.397L664.12 123.48L663.884 131.828L660.958 131.746L661.193 123.397ZM656.936 133.025L656.849 136.12L667.86 136.43L667.948 133.335L656.936 133.025ZM654.252 130.285L670.973 130.756L670.736 139.176L654.015 138.705L654.252 130.285ZM662.5 125.571L672.696 125.858L672.62 128.545L662.424 128.258L662.5 125.571ZM657.946 140.641L660.688 140.454C660.801 140.985 660.897 141.564 660.975 142.191C661.054 142.801 661.118 143.387 661.166 143.949C661.214 144.51 661.232 145.007 661.22 145.439L658.307 145.717C658.319 145.301 658.309 144.797 658.278 144.203C658.262 143.627 658.223 143.025 658.16 142.399C658.114 141.774 658.043 141.188 657.946 140.641ZM662.887 140.804L665.543 140.278C665.769 140.797 665.993 141.356 666.216 141.954C666.456 142.537 666.664 143.103 666.841 143.652C667.017 144.201 667.147 144.693 667.231 145.128L664.404 145.769C664.336 145.35 664.222 144.851 664.062 144.27C663.918 143.69 663.743 143.101 663.536 142.503C663.329 141.889 663.113 141.322 662.887 140.804ZM667.785 140.798L670.379 139.934C670.765 140.441 671.149 141.005 671.532 141.624C671.93 142.243 672.297 142.854 672.632 143.455C672.968 144.041 673.225 144.576 673.404 145.062L670.59 146.063C670.427 145.594 670.195 145.051 669.892 144.435C669.589 143.834 669.246 143.216 668.864 142.581C668.498 141.93 668.138 141.336 667.785 140.798ZM654.036 139.642L656.775 140.44C656.413 141.374 655.938 142.321 655.351 143.281C654.763 144.24 654.149 145.031 653.507 145.654L650.881 144.283C651.487 143.772 652.075 143.092 652.643 142.244C653.211 141.396 653.675 140.528 654.036 139.642Z" fill="white"/>
</g>
<g filter="url(#filter11_d_5004_180)">
<path d="M681.067 148.86L678.883 147.924C679.891 146.18 680.627 144.324 681.091 142.356C681.571 140.388 681.811 138.42 681.811 136.452C681.811 134.484 681.571 132.516 681.091 130.548C680.627 128.58 679.891 126.716 678.883 124.956L681.067 124.02C682.203 125.876 683.083 127.812 683.707 129.828C684.347 131.844 684.667 134.052 684.667 136.452C684.667 138.836 684.347 141.036 683.707 143.052C683.083 145.068 682.203 147.004 681.067 148.86Z" fill="white"/>
</g>
<defs>
<filter id="filter0_d_5004_180" x="131.461" y="104.962" width="350.656" height="65.3872" filterUnits="userSpaceOnUse" color-interpolation-filters="sRGB">
<feFlood flood-opacity="0" result="BackgroundImageFix"/>
<feColorMatrix in="SourceAlpha" type="matrix" values="0 0 0 0 0 0 0 0 0 0 0 0 0 0 0 0 0 0 127 0" result="hardAlpha"/>
<feOffset dx="1" dy="3"/>
<feGaussianBlur stdDeviation="2"/>
<feComposite in2="hardAlpha" operator="out"/>
<feColorMatrix type="matrix" values="0 0 0 0 0.192157 0 0 0 0 0.572549 0 0 0 0 0.717647 0 0 0 1 0"/>
<feBlend mode="normal" in2="BackgroundImageFix" result="effect1_dropShadow_5004_180"/>
<feBlend mode="normal" in="SourceGraphic" in2="effect1_dropShadow_5004_180" result="shape"/>
</filter>
<filter id="filter1_d_5004_180" x="487.359" y="131.381" width="15.0703" height="32.7085" filterUnits="userSpaceOnUse" color-interpolation-filters="sRGB">
<feFlood flood-opacity="0" result="BackgroundImageFix"/>
<feColorMatrix in="SourceAlpha" type="matrix" values="0 0 0 0 0 0 0 0 0 0 0 0 0 0 0 0 0 0 127 0" result="hardAlpha"/>
<feOffset dx="1" dy="3"/>
<feGaussianBlur stdDeviation="2"/>
<feComposite in2="hardAlpha" operator="out"/>
<feColorMatrix type="matrix" values="0 0 0 0 0.192157 0 0 0 0 0.572549 0 0 0 0 0.717647 0 0 0 1 0"/>
<feBlend mode="normal" in2="BackgroundImageFix" result="effect1_dropShadow_5004_180"/>
<feBlend mode="normal" in="SourceGraphic" in2="effect1_dropShadow_5004_180" result="shape"/>
</filter>
<filter id="filter2_d_5004_180" x="495.422" y="132.092" width="21.6562" height="26.6177" filterUnits="userSpaceOnUse" color-interpolation-filters="sRGB">
<feFlood flood-opacity="0" result="BackgroundImageFix"/>
<feColorMatrix in="SourceAlpha" type="matrix" values="0 0 0 0 0 0 0 0 0 0 0 0 0 0 0 0 0 0 127 0" result="hardAlpha"/>
<feOffset dx="1" dy="3"/>
<feGaussianBlur stdDeviation="2"/>
<feComposite in2="hardAlpha" operator="out"/>
<feColorMatrix type="matrix" values="0 0 0 0 0.192157 0 0 0 0 0.572549 0 0 0 0 0.717647 0 0 0 1 0"/>
<feBlend mode="normal" in2="BackgroundImageFix" result="effect1_dropShadow_5004_180"/>
<feBlend mode="normal" in="SourceGraphic" in2="effect1_dropShadow_5004_180" result="shape"/>
</filter>
<filter id="filter3_d_5004_180" x="510.523" y="130.487" width="20.2344" height="26.3944" filterUnits="userSpaceOnUse" color-interpolation-filters="sRGB">
<feFlood flood-opacity="0" result="BackgroundImageFix"/>
<feColorMatrix in="SourceAlpha" type="matrix" values="0 0 0 0 0 0 0 0 0 0 0 0 0 0 0 0 0 0 127 0" result="hardAlpha"/>
<feOffset dx="1" dy="3"/>
<feGaussianBlur stdDeviation="2"/>
<feComposite in2="hardAlpha" operator="out"/>
<feColorMatrix type="matrix" values="0 0 0 0 0.192157 0 0 0 0 0.572549 0 0 0 0 0.717647 0 0 0 1 0"/>
<feBlend mode="normal" in2="BackgroundImageFix" result="effect1_dropShadow_5004_180"/>
<feBlend mode="normal" in="SourceGraphic" in2="effect1_dropShadow_5004_180" result="shape"/>
</filter>
<filter id="filter4_d_5004_180" x="524.383" y="128.908" width="21.75" height="26.6448" filterUnits="userSpaceOnUse" color-interpolation-filters="sRGB">
<feFlood flood-opacity="0" result="BackgroundImageFix"/>
<feColorMatrix in="SourceAlpha" type="matrix" values="0 0 0 0 0 0 0 0 0 0 0 0 0 0 0 0 0 0 127 0" result="hardAlpha"/>
<feOffset dx="1" dy="3"/>
<feGaussianBlur stdDeviation="2"/>
<feComposite in2="hardAlpha" operator="out"/>
<feColorMatrix type="matrix" values="0 0 0 0 0.192157 0 0 0 0 0.572549 0 0 0 0 0.717647 0 0 0 1 0"/>
<feBlend mode="normal" in2="BackgroundImageFix" result="effect1_dropShadow_5004_180"/>
<feBlend mode="normal" in="SourceGraphic" in2="effect1_dropShadow_5004_180" result="shape"/>
</filter>
<filter id="filter5_d_5004_180" x="541.305" y="127.253" width="20.9297" height="26.3682" filterUnits="userSpaceOnUse" color-interpolation-filters="sRGB">
<feFlood flood-opacity="0" result="BackgroundImageFix"/>
<feColorMatrix in="SourceAlpha" type="matrix" values="0 0 0 0 0 0 0 0 0 0 0 0 0 0 0 0 0 0 127 0" result="hardAlpha"/>
<feOffset dx="1" dy="3"/>
<feGaussianBlur stdDeviation="2"/>
<feComposite in2="hardAlpha" operator="out"/>
<feColorMatrix type="matrix" values="0 0 0 0 0.192157 0 0 0 0 0.572549 0 0 0 0 0.717647 0 0 0 1 0"/>
<feBlend mode="normal" in2="BackgroundImageFix" result="effect1_dropShadow_5004_180"/>
<feBlend mode="normal" in="SourceGraphic" in2="effect1_dropShadow_5004_180" result="shape"/>
</filter>
<filter id="filter6_d_5004_180" x="556.57" y="124.845" width="30.5703" height="30.3571" filterUnits="userSpaceOnUse" color-interpolation-filters="sRGB">
<feFlood flood-opacity="0" result="BackgroundImageFix"/>
<feColorMatrix in="SourceAlpha" type="matrix" values="0 0 0 0 0 0 0 0 0 0 0 0 0 0 0 0 0 0 127 0" result="hardAlpha"/>
<feOffset dx="1" dy="3"/>
<feGaussianBlur stdDeviation="2"/>
<feComposite in2="hardAlpha" operator="out"/>
<feColorMatrix type="matrix" values="0 0 0 0 0.192157 0 0 0 0 0.572549 0 0 0 0 0.717647 0 0 0 1 0"/>
<feBlend mode="normal" in2="BackgroundImageFix" result="effect1_dropShadow_5004_180"/>
<feBlend mode="normal" in="SourceGraphic" in2="effect1_dropShadow_5004_180" result="shape"/>
</filter>
<filter id="filter7_d_5004_180" x="582.391" y="126.653" width="20.2812" height="26.434" filterUnits="userSpaceOnUse" color-interpolation-filters="sRGB">
<feFlood flood-opacity="0" result="BackgroundImageFix"/>
<feColorMatrix in="SourceAlpha" type="matrix" values="0 0 0 0 0 0 0 0 0 0 0 0 0 0 0 0 0 0 127 0" result="hardAlpha"/>
<feOffset dx="1" dy="3"/>
<feGaussianBlur stdDeviation="2"/>
<feComposite in2="hardAlpha" operator="out"/>
<feColorMatrix type="matrix" values="0 0 0 0 0.192157 0 0 0 0 0.572549 0 0 0 0 0.717647 0 0 0 1 0"/>
<feBlend mode="normal" in2="BackgroundImageFix" result="effect1_dropShadow_5004_180"/>
<feBlend mode="normal" in="SourceGraphic" in2="effect1_dropShadow_5004_180" result="shape"/>
</filter>
<filter id="filter8_d_5004_180" x="597.656" y="124.279" width="27.6719" height="29.5004" filterUnits="userSpaceOnUse" color-interpolation-filters="sRGB">
<feFlood flood-opacity="0" result="BackgroundImageFix"/>
<feColorMatrix in="SourceAlpha" type="matrix" values="0 0 0 0 0 0 0 0 0 0 0 0 0 0 0 0 0 0 127 0" result="hardAlpha"/>
<feOffset dx="1" dy="3"/>
<feGaussianBlur stdDeviation="2"/>
<feComposite in2="hardAlpha" operator="out"/>
<feColorMatrix type="matrix" values="0 0 0 0 0.192157 0 0 0 0 0.572549 0 0 0 0 0.717647 0 0 0 1 0"/>
<feBlend mode="normal" in2="BackgroundImageFix" result="effect1_dropShadow_5004_180"/>
<feBlend mode="normal" in="SourceGraphic" in2="effect1_dropShadow_5004_180" result="shape"/>
</filter>
<filter id="filter9_d_5004_180" x="622.773" y="123.589" width="30.1719" height="30.5877" filterUnits="userSpaceOnUse" color-interpolation-filters="sRGB">
<feFlood flood-opacity="0" result="BackgroundImageFix"/>
<feColorMatrix in="SourceAlpha" type="matrix" values="0 0 0 0 0 0 0 0 0 0 0 0 0 0 0 0 0 0 127 0" result="hardAlpha"/>
<feOffset dx="1" dy="3"/>
<feGaussianBlur stdDeviation="2"/>
<feComposite in2="hardAlpha" operator="out"/>
<feColorMatrix type="matrix" values="0 0 0 0 0.192157 0 0 0 0 0.572549 0 0 0 0 0.717647 0 0 0 1 0"/>
<feBlend mode="normal" in2="BackgroundImageFix" result="effect1_dropShadow_5004_180"/>
<feBlend mode="normal" in="SourceGraphic" in2="effect1_dropShadow_5004_180" result="shape"/>
</filter>
<filter id="filter10_d_5004_180" x="647.883" y="122.397" width="30.5234" height="30.6656" filterUnits="userSpaceOnUse" color-interpolation-filters="sRGB">
<feFlood flood-opacity="0" result="BackgroundImageFix"/>
<feColorMatrix in="SourceAlpha" type="matrix" values="0 0 0 0 0 0 0 0 0 0 0 0 0 0 0 0 0 0 127 0" result="hardAlpha"/>
<feOffset dx="1" dy="3"/>
<feGaussianBlur stdDeviation="2"/>
<feComposite in2="hardAlpha" operator="out"/>
<feColorMatrix type="matrix" values="0 0 0 0 0.192157 0 0 0 0 0.572549 0 0 0 0 0.717647 0 0 0 1 0"/>
<feBlend mode="normal" in2="BackgroundImageFix" result="effect1_dropShadow_5004_180"/>
<feBlend mode="normal" in="SourceGraphic" in2="effect1_dropShadow_5004_180" result="shape"/>
</filter>
<filter id="filter11_d_5004_180" x="675.883" y="123.02" width="13.7812" height="32.84" filterUnits="userSpaceOnUse" color-interpolation-filters="sRGB">
<feFlood flood-opacity="0" result="BackgroundImageFix"/>
<feColorMatrix in="SourceAlpha" type="matrix" values="0 0 0 0 0 0 0 0 0 0 0 0 0 0 0 0 0 0 127 0" result="hardAlpha"/>
<feOffset dx="1" dy="3"/>
<feGaussianBlur stdDeviation="2"/>
<feComposite in2="hardAlpha" operator="out"/>
<feColorMatrix type="matrix" values="0 0 0 0 0.192157 0 0 0 0 0.572549 0 0 0 0 0.717647 0 0 0 1 0"/>
<feBlend mode="normal" in2="BackgroundImageFix" result="effect1_dropShadow_5004_180"/>
<feBlend mode="normal" in="SourceGraphic" in2="effect1_dropShadow_5004_180" result="shape"/>
</filter>
<linearGradient id="paint0_linear_5004_180" x1="379.35" y1="0.622803" x2="379.35" y2="161.897" gradientUnits="userSpaceOnUse">
<stop stop-color="white" stop-opacity="0"/>
<stop offset="0.628419" stop-color="white"/>
</linearGradient>
<linearGradient id="paint1_linear_5004_180" x1="381.35" y1="1" x2="381.35" y2="162.274" gradientUnits="userSpaceOnUse">
<stop stop-color="white" stop-opacity="0"/>
<stop offset="0.628419" stop-color="white"/>
</linearGradient>
<linearGradient id="paint2_linear_5004_180" x1="1" y1="122.847" x2="182" y2="122.847" gradientUnits="userSpaceOnUse">
<stop stop-color="#129AE5"/>
<stop offset="1" stop-color="#066296"/>
</linearGradient>
<linearGradient id="paint3_linear_5004_180" x1="100.064" y1="143.691" x2="861.998" y2="143.691" gradientUnits="userSpaceOnUse">
<stop stop-color="#0189D4"/>
<stop offset="0.3" stop-color="#3CC7FB"/>
<stop offset="0.745273" stop-color="#3CC7FB"/>
<stop offset="1" stop-color="#0189D4"/>
</linearGradient>
</defs>
</svg>
