<svg width="517" height="162" viewBox="0 0 517 162" fill="none" xmlns="http://www.w3.org/2000/svg">
<path d="M436.94 143.94H429.92C429.98 142.68 430.04 142.08 430.04 141.36C430.04 140.7 430.04 140.7 429.86 137.1L429.02 116.7C428.9 114.06 428.72 111.06 428.48 109.38H438.32C438.14 111 437.9 114.12 437.78 116.7L436.94 137.1C436.82 140.58 436.82 140.58 436.82 141.42C436.82 142.14 436.82 142.74 436.94 143.94ZM437.78 157.08H429.08V148.86H437.78V157.08Z" fill="url(#paint0_linear_4003_96)"/>
<path d="M382.639 131.1L382.759 131.22C388.219 129.06 390.859 128.46 395.359 128.46C405.619 128.46 412.219 133.74 412.219 141.96C412.219 147.66 409.399 152.22 404.059 155.22C400.159 157.44 395.059 158.64 389.539 158.64C384.499 158.64 380.299 157.68 377.899 155.88C375.619 154.2 374.299 151.68 374.299 148.98C374.299 144 378.619 140.4 384.619 140.4C388.819 140.4 392.479 142.14 394.999 145.32C396.199 146.82 396.859 148.14 397.759 150.72C402.739 148.86 404.899 146.28 404.899 142.02C404.899 137.34 400.279 134.28 393.019 134.28C384.259 134.28 375.499 137.82 368.299 144.36L364.219 137.88C366.319 136.86 368.719 135.24 372.679 132.24C378.259 127.98 386.059 121.26 390.619 116.64C390.739 116.52 391.339 115.92 391.699 115.56L391.639 115.5C389.359 115.8 385.519 116.04 374.659 116.52C373.339 116.58 372.919 116.64 371.779 116.82L371.479 109.62C373.519 109.86 375.259 109.98 378.559 109.98C383.659 109.98 390.979 109.68 396.799 109.26C398.899 109.08 399.559 108.96 400.519 108.48L404.239 113.76C403.219 114.3 402.799 114.66 401.119 116.22C398.119 118.98 393.739 122.88 391.699 124.62C390.619 125.52 386.299 128.76 385.099 129.54C383.599 130.56 383.599 130.56 382.639 131.1ZM391.279 152.46C390.199 148.32 387.919 146.16 384.559 146.16C382.399 146.16 381.019 147.24 381.019 148.92C381.019 151.32 383.719 152.7 388.159 152.7C389.299 152.7 389.599 152.7 391.279 152.46Z" fill="url(#paint1_linear_4003_96)"/>
<path d="M317.18 106.74L324.98 107.58C324.8 108.12 324.62 108.78 324.5 109.44C324.38 110.22 324.32 110.52 324.14 111.48C323.96 112.74 323.96 112.74 323.12 117.24C322.88 118.56 322.88 118.68 322.7 119.46C324.44 119.34 325.28 119.28 326.42 119.28C330.38 119.28 333.32 120.36 335.3 122.46C337.34 124.74 338.12 127.62 338.12 133.08C338.12 143.4 336.38 151.62 333.5 154.92C331.82 156.9 330.02 157.62 326.84 157.62C324.08 157.62 321.62 157.14 317.6 155.88C317.66 154.68 317.72 153.84 317.72 153.24C317.72 151.68 317.6 150.48 317.12 148.14C320.36 149.58 323.78 150.48 325.88 150.48C327.62 150.48 328.58 149.34 329.48 146.4C330.44 143.28 331.04 137.82 331.04 132.72C331.04 127.2 329.66 125.58 324.92 125.58C323.72 125.58 322.82 125.64 321.44 125.76C319.64 133.08 319.1 134.88 317.78 138.78C315.68 144.78 314.06 148.62 310.58 155.64C310.28 156.24 310.28 156.24 309.68 157.44C309.5 157.8 309.5 157.86 309.2 158.46L302.24 154.62C304.04 152.22 306.44 147.9 308.48 143.34C311.06 137.46 311.9 134.94 314.3 126.36C311.24 126.72 305.54 127.74 303.56 128.28L302.84 121.2C305.06 121.2 312.32 120.48 315.62 120C316.7 113.52 317.18 109.86 317.18 107.88C317.18 107.64 317.18 107.22 317.18 106.74ZM338.66 118.26L344.84 115.26C350.84 122.28 354.62 129.42 357.2 138.66L350.36 142.14C349.22 136.98 347.84 133.02 345.56 128.52C343.4 124.08 341.48 121.32 338.66 118.26Z" fill="url(#paint2_linear_4003_96)"/>
<path d="M244.76 127.8L243.02 119.28C245.06 119.1 246.02 118.98 250.04 118.08C263.72 115.14 266.96 114.66 273.92 114.66C285.8 114.66 293.54 121.32 293.54 131.52C293.54 139.68 288.74 146.58 280.22 150.72C274.76 153.42 270.08 154.5 259.1 155.7C258.32 152.46 257.78 151.2 256.04 147.96C265.64 147.54 270.68 146.64 275.78 144.42C280.1 142.5 283.64 139.08 284.84 135.54C285.26 134.34 285.5 132.84 285.5 131.28C285.5 127.98 283.82 125.1 280.94 123.48C279.02 122.4 276.5 121.86 273.2 121.86C266.96 121.86 259.22 123.24 249.56 126.12C246.5 127.02 246.02 127.14 244.76 127.8Z" fill="url(#paint3_linear_4003_96)"/>
<path d="M198.859 143.28H195.439C192.559 143.28 190.519 143.34 188.959 143.46C189.199 141.72 189.259 139.86 189.259 137.1V115.2C189.259 111.9 189.139 109.26 188.959 107.7C190.759 107.94 192.499 108 195.259 108H222.919C225.679 108 227.539 107.94 229.279 107.7C229.099 109.14 228.979 111.9 228.979 115.2V137.1C228.979 139.98 229.039 141.78 229.279 143.46C227.719 143.34 225.379 143.28 222.919 143.28H217.759V152.52C217.759 154.2 218.299 154.38 222.979 154.38C227.599 154.38 228.799 154.14 229.519 153.12C230.119 152.28 230.419 150 230.599 145.44C233.059 146.76 234.499 147.36 236.779 147.96C236.179 154.62 235.579 156.84 234.079 158.28C232.399 159.84 229.819 160.32 223.039 160.32C213.079 160.32 211.279 159.48 211.279 154.98V143.28H205.879C205.159 147.9 203.239 151.56 200.179 154.38C196.399 157.92 191.839 160.02 184.939 161.58C183.919 159.06 183.199 157.8 181.459 155.7C187.099 154.68 190.279 153.6 193.159 151.74C196.399 149.64 198.139 147.06 198.859 143.28ZM195.559 114V117.9H222.619V114H195.559ZM195.559 123.54V127.56H222.619V123.54H195.559ZM195.559 133.2V137.46H222.619V133.2H195.559Z" fill="url(#paint4_linear_4003_96)"/>
<path d="M161.779 123L167.839 120C171.979 125.7 175.099 132.18 176.839 139.08L169.999 142.5C168.799 136.2 165.079 127.38 161.779 123ZM144.139 109.8L144.019 110.58C143.719 112.32 143.299 114.78 142.699 118.02C142.519 119.04 142.519 119.04 142.339 119.82C144.139 119.76 144.979 119.7 146.059 119.7C150.019 119.7 152.959 120.78 154.939 122.88C156.979 125.16 157.759 128.04 157.759 133.5C157.759 143.82 156.019 152.04 153.139 155.34C151.459 157.32 149.659 158.04 146.479 158.04C143.719 158.04 141.259 157.56 137.239 156.24C137.299 155.1 137.359 154.2 137.359 153.6C137.359 152.04 137.239 150.84 136.759 148.5C139.999 149.94 143.419 150.9 145.519 150.9C147.259 150.9 148.219 149.76 149.119 146.82C150.079 143.7 150.679 138.24 150.679 133.14C150.679 127.62 149.299 126 144.679 126C143.419 126 142.459 126.06 141.079 126.18C138.139 138.48 135.439 145.74 128.839 158.82L121.879 154.98C126.499 148.68 131.119 137.88 133.939 126.72C133.039 126.84 133.039 126.84 131.119 127.2L125.659 128.1C124.699 128.28 124.039 128.46 123.199 128.7L122.479 121.62C125.179 121.56 128.299 121.26 135.259 120.36C136.399 113.7 136.819 110.28 136.819 108.24C136.819 108 136.819 107.64 136.819 107.16L144.619 107.94C144.439 108.42 144.259 109.2 144.139 109.8ZM158.059 110.22L162.259 108.12C164.899 110.94 166.519 113.22 168.559 116.94L164.359 119.16C162.379 115.5 160.699 113.1 158.059 110.22ZM175.699 113.04L171.559 115.38C169.759 112.08 167.779 109.26 165.439 106.68L169.459 104.58C172.159 107.34 173.839 109.62 175.699 113.04Z" fill="url(#paint5_linear_4003_96)"/>
<path d="M94.699 124.32H91.579C89.179 124.32 88.159 124.38 86.719 124.5V121.62C84.859 122.94 83.599 123.66 81.139 124.92C80.419 123.18 80.059 122.58 78.979 121.26C77.719 124.32 77.659 124.5 76.579 126.72C78.439 129.18 79.159 130.38 79.819 132.42C80.599 134.64 81.019 137.46 81.019 140.1C81.019 144.54 79.819 146.7 76.819 147.66C75.679 148.08 74.239 148.2 71.479 148.2C71.359 145.56 70.879 143.88 69.799 142.02C71.299 142.2 71.719 142.26 72.199 142.26C74.419 142.26 74.959 141.72 74.959 139.62C74.959 137.88 74.719 135.9 74.359 134.34C73.579 131.34 72.739 129.84 70.519 127.44C72.739 122.58 74.179 118.56 75.799 113.1H69.619V153.96C69.619 157.5 69.679 159 69.919 160.74H62.959C63.199 158.88 63.319 157.08 63.319 153.84V112.68C63.319 110.7 63.259 108.96 63.139 107.04C64.339 107.22 65.719 107.28 67.699 107.28H75.979C78.019 107.28 79.099 107.22 80.059 107.04L83.179 110.58C82.699 111.6 82.459 112.14 82.399 112.32C82.099 113.1 81.739 114.12 81.259 115.32C80.599 117.18 80.599 117.18 80.179 118.14C83.479 116.4 85.459 115.14 87.619 113.22C90.679 110.52 92.359 108.54 94.099 105.54H100.579C104.299 111.48 110.059 115.62 118.459 118.44C116.719 120.36 115.759 121.86 114.739 124.5C111.859 123.18 111.079 122.76 109.279 121.68V124.5C108.079 124.38 106.759 124.32 104.419 124.32H100.639V127.98H108.619C111.019 127.98 112.279 127.92 113.839 127.8C113.719 130.44 113.659 131.16 113.659 132.6V140.22C113.659 141.42 113.719 143.04 113.839 144.96C112.099 144.78 110.659 144.72 108.199 144.72H101.119C104.779 149.64 109.699 152.64 117.739 154.74C115.999 156.9 115.159 158.16 114.019 160.8C109.519 159.06 107.059 157.8 104.359 155.82C101.359 153.66 99.079 151.26 97.339 148.44C94.219 154.5 89.059 158.34 80.359 161.1C78.979 158.4 78.019 157.02 76.279 155.34C80.659 154.5 83.959 153.18 87.019 151.14C89.659 149.28 91.219 147.54 92.539 144.72H87.439C85.159 144.72 83.719 144.78 81.979 144.96C82.039 144.42 82.039 144.42 82.099 143.34C82.159 142.8 82.159 141.72 82.159 140.94V132.12C82.159 130.32 82.159 129.9 81.979 127.8C83.539 127.98 84.199 127.98 87.139 127.98H94.699V124.32ZM94.639 133.38H87.679V139.2H94.099C94.399 137.04 94.579 135.6 94.639 133.38ZM107.899 133.38H100.519C100.459 135.54 100.339 137.52 100.099 139.2H107.899V133.38ZM104.419 118.8H105.199C102.079 116.28 99.799 113.88 97.639 110.76C95.419 114 93.619 115.98 90.379 118.8C90.799 118.8 90.799 118.8 91.579 118.8H104.419Z" fill="url(#paint6_linear_4003_96)"/>
<path d="M32.8995 132.48V127.56H26.5395C23.8995 127.56 22.0395 127.62 20.4195 127.8C20.5995 126 20.6595 124.5 20.6595 121.98V113.22C20.6595 110.94 20.5995 109.5 20.4195 107.76C22.1595 108 23.8395 108.06 27.0795 108.06H46.2195C49.0995 108.06 51.0795 108 52.8195 107.76C52.6395 109.62 52.5795 110.82 52.5795 113.58V122.1C52.5795 124.62 52.6395 126.06 52.8195 127.74C52.1595 127.68 52.1595 127.68 51.0795 127.68C50.8395 127.68 50.3595 127.68 49.7595 127.62C48.6195 127.56 47.6595 127.56 46.8795 127.56H39.2595V132.48H49.7595C51.9795 132.48 54.3195 132.36 56.2995 132.12V138.84C54.0795 138.6 51.7995 138.48 49.9395 138.48H41.8995C44.4195 141.6 45.7395 142.92 48.3195 145.08C51.5595 147.78 54.1395 149.4 57.9195 151.2C56.1795 153.48 55.2795 154.86 53.8995 157.62C49.6395 154.74 48.3795 153.78 46.2795 151.92C43.2195 149.22 41.5395 147.24 39.0795 143.4C39.1995 145.38 39.2595 148.2 39.2595 149.82V155.4C39.2595 157.32 39.3795 159.06 39.6195 160.92H32.5395C32.7795 159 32.8995 157.32 32.8995 155.34V149.7C32.8995 149.22 32.9595 147.06 33.0195 143.34C30.6195 147.36 28.8795 149.46 25.3395 152.64C22.6395 155.04 20.8395 156.36 18.1395 157.98C16.6395 155.04 16.2795 154.5 14.0595 152.04C17.9595 150 21.0795 147.84 24.3795 144.84C26.7195 142.74 27.7995 141.54 30.1395 138.48H22.9995C20.6595 138.48 18.3795 138.6 16.4595 138.84V132.18C18.3795 132.36 20.2995 132.48 22.9995 132.48H32.8995ZM26.9595 113.94V121.68H46.1595V113.94H26.9595ZM7.39953 153.84V136.8C7.39953 134.82 7.39953 133.44 7.51953 130.2C6.01953 132.66 5.05953 133.98 2.89953 136.26C1.75953 132.6 1.45953 131.76 0.0195312 129C4.45953 124.62 7.69953 119.58 10.1595 113.1C11.2995 110.1 12.1395 107.04 12.4395 104.94L19.1595 107.1C18.7995 107.94 18.7995 107.94 18.2595 109.8C16.9995 113.88 15.8595 116.58 13.6395 120.96V153.9C13.6395 156.48 13.6995 158.46 13.9395 160.86H7.03953C7.27953 158.46 7.39953 156.66 7.39953 153.84Z" fill="url(#paint7_linear_4003_96)"/>
<path d="M495.559 33.5399C494.419 42.9599 492.319 51.2399 489.319 58.0199C485.899 65.7599 482.059 69.2999 477.139 69.2999C470.299 69.2999 465.379 62.3399 465.379 52.6799C465.379 46.0799 467.719 39.8999 471.979 35.2199C477.019 29.6999 484.099 26.8199 492.619 26.8199C507.019 26.8199 516.379 35.5799 516.379 49.0799C516.379 59.4599 510.979 67.7399 501.799 71.4599C498.919 72.6599 496.579 73.26 492.379 73.9799C491.359 70.7999 490.639 69.4799 488.719 66.9599C494.239 66.2399 497.839 65.2799 500.659 63.6599C505.879 60.7799 508.999 55.0799 508.999 48.6599C508.999 42.8999 506.419 38.2199 501.619 35.3399C499.759 34.2599 498.199 33.7799 495.559 33.5399ZM488.239 33.5999C485.119 33.9599 482.959 34.7999 480.499 36.5399C475.459 40.1399 472.339 46.3199 472.339 52.7399C472.339 57.6599 474.439 61.5599 477.079 61.5599C479.059 61.5599 481.099 59.0399 483.259 53.8799C485.539 48.4799 487.519 40.3799 488.239 33.5999Z" fill="url(#paint8_linear_4003_96)"/>
<path d="M399.896 5.72388L411.32 5.80788C410.984 8.15988 410.984 8.91588 410.984 13.3679V36.5519C410.984 40.7519 410.984 41.8439 411.32 43.9439H399.812C400.065 42.0119 400.233 39.4079 400.233 36.3839V13.2839C400.233 8.99988 400.148 7.90788 399.896 5.72388ZM437.78 5.89187H449.457C449.121 7.99188 449.036 8.91587 449.036 13.7039V25.0439C448.953 38.1479 448.365 45.2039 446.853 50.4959C444.417 58.8959 439.041 65.1959 430.305 70.0679C425.853 72.5879 421.653 74.2679 413.924 76.5359C412.412 72.4199 411.572 70.9919 408.044 66.5399C416.276 64.9439 421.149 63.1799 426.189 59.8199C434.085 54.6119 436.856 49.4879 437.78 38.3999C438.116 34.7879 438.201 31.0919 438.201 24.3719V13.8719C438.201 9.58788 438.116 7.82387 437.78 5.89187Z" fill="url(#paint9_linear_4003_96)"/>
<path d="M379.484 11.6879L385.112 17.3159C384.02 18.7439 383.852 19.0799 382.508 22.9439C379.82 30.5879 375.2 40.4159 371.756 46.0439C363.188 59.9879 351.344 69.8999 333.452 78.1319C330.764 73.5959 329.672 72.1679 326.48 69.4799C333.62 66.5399 337.82 64.4399 342.86 61.0799C348.824 57.2159 352.352 54.1919 356.636 49.4039C350.756 44.3639 345.716 40.8359 339.416 37.3919L345.8 29.9159C352.856 33.8639 356.384 36.2159 362.684 41.1719C366.632 35.1239 369.488 29.2439 372.092 21.3479L345.968 21.5999C340.76 30.2519 334.796 37.0559 326.312 44.1959C323.54 41.0879 322.28 39.9959 317.912 37.4759C327.152 30.5879 333.872 22.9439 338.996 13.5359C341.432 9.08386 343.112 4.96786 343.868 1.85986L354.788 4.29586C353.864 5.80786 353.864 5.80786 352.268 8.99986C351.26 11.2679 350.672 12.2759 350.252 13.0319C351.596 12.8639 351.596 12.8639 372.092 12.6959C375.536 12.6119 377.3 12.4439 379.484 11.6879Z" fill="url(#paint10_linear_4003_96)"/>
<path d="M264 37.1839L270.784 35.1999C273.472 40.1279 274.752 43.1999 277.056 50.3679L269.824 52.6719C268.16 46.2079 266.88 42.8159 264 37.1839ZM277.696 34.4959L284.416 32.5759C287.808 38.9119 289.024 41.7279 290.624 47.2959L283.52 49.5359C282.304 44.6719 280.384 39.7439 277.696 34.4959ZM299.712 33.8559L307.52 35.6479C307.136 36.6079 307.008 36.9279 306.624 38.9119C304.768 47.6159 301.888 54.6559 297.792 60.2239C293.056 66.6879 287.744 70.8479 278.272 75.6479C276.608 72.8319 275.84 71.8719 273.152 69.3119C277.632 67.5839 280.256 66.1759 284.032 63.4239C291.52 57.9839 295.808 51.4559 298.56 41.2159C299.392 38.0799 299.712 35.8399 299.712 33.8559Z" fill="url(#paint11_linear_4003_96)"/>
<path d="M203.695 14.9639V31.932C216.379 29.58 234.943 22.1039 240.403 16.9799L247.123 26.4719C246.199 26.8079 246.031 26.892 245.359 27.2279L243.175 28.3199C230.743 34.7039 217.723 39.0719 203.695 41.6759V52.764C203.611 53.268 203.611 53.772 203.611 54.108C203.611 58.812 203.947 60.66 205.123 61.836C206.551 63.264 211.339 64.02 219.487 64.02C225.115 64.02 232.843 63.516 238.975 62.676C243.007 62.172 244.855 61.752 248.551 60.66L249.055 71.832C247.291 71.832 246.871 71.916 237.967 72.756C233.011 73.26 222.427 73.764 217.303 73.764C206.719 73.764 200.923 72.672 197.647 70.152C195.295 68.388 194.035 65.7 193.531 61.584C193.363 60.156 193.279 58.728 193.279 53.856L193.195 14.88C193.195 10.596 193.195 9.25195 192.859 7.15195H204.115C203.779 9.16795 203.695 10.6799 203.695 14.9639ZM252.079 0.0959473C257.455 0.0959473 261.823 4.46395 261.823 9.75595C261.823 15.1319 257.455 19.5 252.079 19.5C246.787 19.5 242.419 15.1319 242.419 9.75595C242.419 4.46395 246.787 0.0959473 252.079 0.0959473ZM252.079 4.29595C249.055 4.29595 246.619 6.73195 246.619 9.75595C246.619 12.7799 249.055 15.3 252.079 15.3C255.187 15.3 257.623 12.7799 257.623 9.75595C257.623 6.73195 255.187 4.29595 252.079 4.29595Z" fill="url(#paint12_linear_4003_96)"/>
<path d="M134.839 73.4399L127.579 73.8599C127.519 72.7799 127.459 72.4199 127.279 71.0399C126.139 63.7799 125.719 59.1599 125.719 53.0999C125.719 45.3599 126.439 38.5199 128.179 29.6399C128.839 26.2799 128.959 25.6799 129.079 24.0599L136.999 24.8999C135.559 28.4399 134.179 35.1599 133.219 42.8399C132.619 47.3399 132.379 50.8799 132.319 56.0999C132.319 57.4199 132.259 57.8999 132.199 59.3999C132.859 57.2999 132.979 56.8799 135.319 51.4799L140.119 53.6399C136.819 60.5999 134.779 67.5599 134.779 71.8199C134.779 72.1799 134.779 72.6599 134.839 73.4399ZM143.119 37.4999L143.239 30.2999C145.939 31.0199 149.119 31.2599 154.339 31.2599C160.999 31.2599 166.699 30.7199 170.659 29.6399L171.019 36.8999C170.539 36.9599 169.639 37.0799 166.759 37.4399C162.919 37.9199 158.359 38.1599 153.919 38.1599C149.539 38.1599 149.479 38.1599 143.119 37.4999ZM147.259 47.3999L153.139 50.1599C150.139 53.6399 148.879 56.2199 148.879 58.7999C148.879 62.2199 152.179 64.0199 158.419 64.0199C163.699 64.0199 168.919 63.1799 172.699 61.7399L173.299 69.3599C172.459 69.4199 172.219 69.4799 170.839 69.7199C166.039 70.4999 162.379 70.8599 158.419 70.8599C150.979 70.8599 146.179 69.1799 143.539 65.6399C142.399 64.1399 141.739 61.9199 141.739 59.7599C141.739 55.8599 143.539 51.8399 147.259 47.3999Z" fill="url(#paint13_linear_4003_96)"/>
<path d="M80.7203 48.2399H77.5403C75.5003 48.2399 74.0003 48.3599 72.4403 48.5399V44.2799C69.5603 47.2199 68.0603 48.5399 64.9403 50.9399C63.9203 48.8999 62.4803 47.0999 60.3203 45.0599C67.7603 39.8999 72.2603 34.9799 76.1003 27.8399C77.5403 25.1999 78.2003 23.5799 78.5003 21.7799L85.7003 24.3599C85.1003 25.2599 84.8003 25.7999 84.0803 27.4199C81.8603 32.1599 78.3203 37.4999 74.4203 41.9999C76.0403 42.1199 76.3403 42.1199 77.5403 42.1199H99.6203C101.06 42.1199 101.9 42.1199 103.34 42.0599C99.1403 37.3199 96.0203 32.5799 93.4403 26.9999C93.2003 26.3999 92.6003 25.1999 92.1803 24.4799L98.8403 21.8999C99.2603 23.4599 99.8603 24.7199 101.18 27.1199C105.14 34.3199 110.3 39.7199 117.8 44.5199C115.28 47.4599 114.8 48.1199 113.24 50.9999C109.94 48.5399 108.44 47.2799 105.8 44.6999C105.8 45.5399 105.8 45.7199 105.8 46.7399C105.8 59.1599 104.78 68.6399 103.28 71.8199C101.96 74.4599 99.8003 75.2999 94.4603 75.2999C93.2603 75.2999 92.3003 75.2399 88.2803 75.0599C87.9803 72.4199 87.5603 70.9799 86.4803 68.0399C89.3603 68.5199 92.0003 68.8199 93.7403 68.8199C95.9603 68.8199 96.6203 68.5799 97.1603 67.6799C98.0603 65.8799 99.0203 57.9599 99.0203 51.7199V50.3999C99.0203 50.1599 99.0203 49.8599 99.0203 49.4999C99.0203 49.1399 99.0203 48.7199 99.0203 48.2399H87.5003C87.0203 54.4799 85.7003 58.8599 82.8203 63.5999C79.5203 69.1199 74.6603 73.2599 67.5803 76.7999C66.4403 74.5799 65.4803 73.2599 63.2003 70.9199C66.9203 69.5399 69.3803 68.0399 72.5003 65.3999C76.7003 61.7999 79.3403 57.1799 80.3603 51.7199C80.5403 50.6999 80.6003 49.9799 80.7203 48.2399Z" fill="url(#paint14_linear_4003_96)"/>
<path d="M14.7198 28.92H22.0398C23.3598 26.28 24.1998 23.76 24.7998 21L32.3598 21.72C31.2798 24.6 30.3798 26.64 29.2998 28.92H43.2198C46.6998 28.92 48.3798 28.86 50.5998 28.62C50.3598 30.66 50.2998 32.28 50.2998 36V69.6C50.2998 73.14 50.3598 74.64 50.6598 76.56H43.7598V73.5H14.1198V76.56H7.33984C7.57984 75.06 7.69984 72.42 7.69984 69.6V36C7.69984 32.4 7.63984 30.72 7.39984 28.62C9.55984 28.86 11.2398 28.92 14.7198 28.92ZM14.1798 35.04V41.82H43.8198V35.04H14.1798ZM14.1798 47.58V54.42H43.8198V47.58H14.1798ZM14.1798 60.18V67.44H43.8198V60.18H14.1798Z" fill="url(#paint15_linear_4003_96)"/>
<defs>
<linearGradient id="paint0_linear_4003_96" x1="32.0638" y1="70.93" x2="547.93" y2="-45.2643" gradientUnits="userSpaceOnUse">
<stop offset="0.119222" stop-color="#0089D4"/>
<stop offset="0.614946" stop-color="#14BAF8"/>
<stop offset="1" stop-color="#6FD8FF"/>
</linearGradient>
<linearGradient id="paint1_linear_4003_96" x1="32.0621" y1="70.9301" x2="547.929" y2="-45.2642" gradientUnits="userSpaceOnUse">
<stop offset="0.119222" stop-color="#0089D4"/>
<stop offset="0.614946" stop-color="#14BAF8"/>
<stop offset="1" stop-color="#6FD8FF"/>
</linearGradient>
<linearGradient id="paint2_linear_4003_96" x1="32.0636" y1="70.9301" x2="547.93" y2="-45.2642" gradientUnits="userSpaceOnUse">
<stop offset="0.119222" stop-color="#0089D4"/>
<stop offset="0.614946" stop-color="#14BAF8"/>
<stop offset="1" stop-color="#6FD8FF"/>
</linearGradient>
<linearGradient id="paint3_linear_4003_96" x1="32.0629" y1="70.93" x2="547.929" y2="-45.2643" gradientUnits="userSpaceOnUse">
<stop offset="0.119222" stop-color="#0089D4"/>
<stop offset="0.614946" stop-color="#14BAF8"/>
<stop offset="1" stop-color="#6FD8FF"/>
</linearGradient>
<linearGradient id="paint4_linear_4003_96" x1="32.0624" y1="70.9301" x2="547.929" y2="-45.2643" gradientUnits="userSpaceOnUse">
<stop offset="0.119222" stop-color="#0089D4"/>
<stop offset="0.614946" stop-color="#14BAF8"/>
<stop offset="1" stop-color="#6FD8FF"/>
</linearGradient>
<linearGradient id="paint5_linear_4003_96" x1="32.0622" y1="70.9301" x2="547.929" y2="-45.2642" gradientUnits="userSpaceOnUse">
<stop offset="0.119222" stop-color="#0089D4"/>
<stop offset="0.614946" stop-color="#14BAF8"/>
<stop offset="1" stop-color="#6FD8FF"/>
</linearGradient>
<linearGradient id="paint6_linear_4003_96" x1="32.0624" y1="70.93" x2="547.929" y2="-45.2643" gradientUnits="userSpaceOnUse">
<stop offset="0.119222" stop-color="#0089D4"/>
<stop offset="0.614946" stop-color="#14BAF8"/>
<stop offset="1" stop-color="#6FD8FF"/>
</linearGradient>
<linearGradient id="paint7_linear_4003_96" x1="32.0629" y1="70.9301" x2="547.929" y2="-45.2643" gradientUnits="userSpaceOnUse">
<stop offset="0.119222" stop-color="#0089D4"/>
<stop offset="0.614946" stop-color="#14BAF8"/>
<stop offset="1" stop-color="#6FD8FF"/>
</linearGradient>
<linearGradient id="paint8_linear_4003_96" x1="32.0622" y1="70.9301" x2="547.929" y2="-45.2643" gradientUnits="userSpaceOnUse">
<stop offset="0.119222" stop-color="#0089D4"/>
<stop offset="0.614946" stop-color="#14BAF8"/>
<stop offset="1" stop-color="#6FD8FF"/>
</linearGradient>
<linearGradient id="paint9_linear_4003_96" x1="32.0639" y1="70.93" x2="547.93" y2="-45.2643" gradientUnits="userSpaceOnUse">
<stop offset="0.119222" stop-color="#0089D4"/>
<stop offset="0.614946" stop-color="#14BAF8"/>
<stop offset="1" stop-color="#6FD8FF"/>
</linearGradient>
<linearGradient id="paint10_linear_4003_96" x1="32.0635" y1="70.93" x2="547.93" y2="-45.2643" gradientUnits="userSpaceOnUse">
<stop offset="0.119222" stop-color="#0089D4"/>
<stop offset="0.614946" stop-color="#14BAF8"/>
<stop offset="1" stop-color="#6FD8FF"/>
</linearGradient>
<linearGradient id="paint11_linear_4003_96" x1="32.0633" y1="70.9301" x2="547.93" y2="-45.2643" gradientUnits="userSpaceOnUse">
<stop offset="0.119222" stop-color="#0089D4"/>
<stop offset="0.614946" stop-color="#14BAF8"/>
<stop offset="1" stop-color="#6FD8FF"/>
</linearGradient>
<linearGradient id="paint12_linear_4003_96" x1="32.0627" y1="70.9301" x2="547.929" y2="-45.2643" gradientUnits="userSpaceOnUse">
<stop offset="0.119222" stop-color="#0089D4"/>
<stop offset="0.614946" stop-color="#14BAF8"/>
<stop offset="1" stop-color="#6FD8FF"/>
</linearGradient>
<linearGradient id="paint13_linear_4003_96" x1="32.0621" y1="70.9301" x2="547.929" y2="-45.2643" gradientUnits="userSpaceOnUse">
<stop offset="0.119222" stop-color="#0089D4"/>
<stop offset="0.614946" stop-color="#14BAF8"/>
<stop offset="1" stop-color="#6FD8FF"/>
</linearGradient>
<linearGradient id="paint14_linear_4003_96" x1="32.0637" y1="70.93" x2="547.93" y2="-45.2643" gradientUnits="userSpaceOnUse">
<stop offset="0.119222" stop-color="#0089D4"/>
<stop offset="0.614946" stop-color="#14BAF8"/>
<stop offset="1" stop-color="#6FD8FF"/>
</linearGradient>
<linearGradient id="paint15_linear_4003_96" x1="32.0632" y1="70.9301" x2="547.93" y2="-45.2642" gradientUnits="userSpaceOnUse">
<stop offset="0.119222" stop-color="#0089D4"/>
<stop offset="0.614946" stop-color="#14BAF8"/>
<stop offset="1" stop-color="#6FD8FF"/>
</linearGradient>
</defs>
</svg>
